<svg width="94" height="25" viewBox="0 0 94 25" fill="none" xmlns="http://www.w3.org/2000/svg">
<g clip-path="url(#clip0_581_63)">
<path d="M38.9667 18.4371H31.2103V14.7067H39.1514C40.1486 14.799 40.8966 15.6024 40.8966 16.5534C40.9058 17.5876 40.0563 18.4371 38.9667 18.4371ZM31.2196 6.23927H39.4469C40.3426 6.37778 41.0536 7.13496 41.0536 8.03986C41.0536 8.94476 40.3426 9.78506 39.4008 9.88662H31.3119L31.2196 6.23927ZM42.7526 12.1489C45.7352 11.2071 46.2522 8.84321 46.2522 6.90411C46.2522 3.92157 44.0731 1.37305 37.6002 1.37305H25.4946V23.5896H37.554C44.0823 23.5896 46.4923 20.3762 46.4923 17.209C46.4831 13.377 42.7527 12.1489 42.7527 12.1489L42.7526 12.1489Z" fill="black"/>
<path d="M73.5752 1.41895H94.0004V6.239H79.254V9.83096H92.5415V14.6972H79.254V18.5754H94.0004V23.6817H73.5752V1.41895Z" fill="black"/>
<path d="M64.7846 8.31663C64.6922 9.02764 63.935 9.83098 62.9378 9.83098H54.9505V6.28519H62.9378C63.8797 6.28519 64.6368 6.95003 64.7846 7.84572V8.31663ZM61.6635 1.41897H49.3271V23.6909H54.9967V14.7064H61.2388C63.0394 14.7526 64.406 16.1284 64.406 17.8736V23.6909H69.9832V16.507C69.9832 13.2013 66.6221 12.204 66.6221 12.204C66.6221 12.204 70.0756 11.2068 70.0756 7.29165C70.0294 2.40697 65.7264 1.41897 61.6635 1.41897Z" fill="black"/>
<path d="M21.8101 18.2891C21.7177 18.2891 14.0536 18.4276 11.4128 18.1968C7.15598 17.8182 5.64165 14.7895 5.64165 12.3333C5.64165 9.25847 7.82083 6.98694 11.2189 6.56219C12.8256 6.37751 21.6716 6.46985 21.7639 6.46985H21.9486V1.41895H11.736C10.6002 1.46512 8.75343 1.60363 6.86974 2.31463C5.12454 3.11798 3.50863 4.34607 2.3267 5.86042C0.858522 7.79952 0.0551758 10.0711 0.0551758 12.4811C0.0551758 13.2382 0.101346 13.9954 0.239856 14.7064C0.950862 18.0675 3.26854 20.8562 6.57426 22.3613C7.71002 22.8322 9.40905 23.4047 12.9087 23.5894L14.8016 23.6355H21.9855V18.2892L21.8101 18.2891Z" fill="black"/>
</g>
<defs>
<clipPath id="clip0_581_63">
<rect width="94" height="25" fill="white"/>
</clipPath>
</defs>
</svg>
