<svg width="100%" height="auto" viewBox="0 0 154 36" fill="#000000" xmlns="http://www.w3.org/2000/svg">
<path fill-rule="evenodd" clip-rule="evenodd" d="M33.6898 17.9035C29.4548 17.4571 25.5163 15.5038 22.5812 12.3942C19.6461 9.28464 17.9066 5.22241 17.6749 0.936616C17.6688 0.806347 17.6371 0.678577 17.5816 0.560796C17.526 0.443015 17.4478 0.337552 17.3514 0.250566C17.255 0.16358 17.1424 0.0968068 17.0201 0.0541351C16.8979 0.0114635 16.7684 -0.00624892 16.6393 0.00202623C12.1216 0.323634 7.89287 2.35951 4.80532 5.69932C1.71776 9.03913 0.000976562 13.4346 0.000976562 17.9997C0.000976562 22.5648 1.71776 26.9603 4.80532 30.3001C7.89287 33.6399 12.1216 35.6758 16.6393 35.9974C16.7684 36.0057 16.8979 35.9879 17.0201 35.9452C17.1424 35.9026 17.255 35.8358 17.3514 35.7488C17.4478 35.6618 17.526 35.5564 17.5816 35.4386C17.6371 35.3208 17.6688 35.1931 17.6749 35.0628C17.9066 30.777 19.6461 26.7148 22.5812 23.6052C25.5163 20.4956 29.4548 18.5423 33.6898 18.0959C33.7134 18.0935 33.7354 18.0824 33.7514 18.0646C33.7674 18.0468 33.7762 18.0237 33.7762 17.9997C33.7762 17.9757 33.7674 17.9526 33.7514 17.9348C33.7354 17.917 33.7134 17.9059 33.6898 17.9035ZM55.5264 10.0789C55.5264 5.85741 52.9835 3.71294 49.1943 3.71294H44.707V16.4449H49.1943C52.9841 16.4449 55.5264 14.2839 55.5264 10.0789ZM46.8509 5.57307H49.2447C51.8209 5.57307 53.3165 7.1813 53.3165 10.0793C53.3165 12.9944 51.8209 14.5859 49.2447 14.5859H46.8509V5.57307ZM56.5713 11.9223C56.5713 9.15815 58.2825 7.21489 60.9754 7.21489C63.6181 7.21489 65.3464 9.05749 65.3464 11.872C65.3452 12.0963 65.3285 12.3202 65.2965 12.5422H58.682C58.8482 14.2844 59.729 15.1723 60.9921 15.1723C62.1388 15.1723 62.7205 14.6529 63.0363 13.7818H65.1469C64.5819 15.7084 63.0695 16.6465 60.9754 16.6465C58.2332 16.6465 56.5713 14.6697 56.5713 11.9223ZM60.9754 8.68894C59.7616 8.68894 58.9134 9.45956 58.698 11.0847H63.2191C63.1194 9.64399 62.2551 8.68894 60.9754 8.68894ZM70.6869 16.6465C72.7811 16.6465 74.2934 15.7084 74.8585 13.7818H72.7478C72.4319 14.6529 71.8504 15.1723 70.7036 15.1723C69.4406 15.1723 68.5596 14.2844 68.3934 12.5422H75.0079C75.0399 12.3202 75.0567 12.0963 75.0579 11.872C75.0579 9.05749 73.3295 7.21489 70.6869 7.21489C67.9939 7.21489 66.2827 9.15815 66.2827 11.9223C66.2827 14.6697 67.9447 16.6465 70.6869 16.6465ZM70.6869 8.68909C71.9667 8.68909 72.8309 9.64414 72.9305 11.0848H68.41C68.6261 9.45955 69.4738 8.68894 70.6869 8.68894V8.68909ZM78.5623 14.0132H78.5492V19.6773H76.4883V7.41575H78.5491V9.98306H78.5623C78.7288 8.91339 79.5861 7.21489 81.7323 7.21489C83.9095 7.21489 85.4883 9.17491 85.4883 11.9223C85.4883 14.6697 83.9261 16.6465 81.7323 16.6465C80.9785 16.6638 80.2436 16.4073 79.6617 15.9239C79.0797 15.4406 78.6896 14.7624 78.5623 14.0132ZM83.3783 11.9223C83.3783 9.94536 82.5307 8.68894 80.9851 8.68894C79.4559 8.68894 78.5263 9.94552 78.5263 11.9223C78.5263 13.9158 79.4559 15.1723 80.9851 15.1723C82.5307 15.1723 83.3783 13.9158 83.3783 11.9223ZM95.6506 14.8868C94.105 14.8868 92.9084 14.1162 92.6923 12.5582H90.4653C90.831 15.1046 92.8253 16.6458 95.6009 16.6458C98.7918 16.6458 100.902 15.0878 100.902 12.6922C100.902 10.6985 99.7225 9.71012 97.2628 9.15744L95.5841 8.78889C93.7394 8.37008 92.9915 8.01814 92.9915 6.96273C92.9915 5.92346 94.1382 5.27075 95.5675 5.27075C96.9635 5.27075 97.9939 5.80681 98.3596 7.06339H100.587C100.221 4.96934 98.4427 3.51128 95.5675 3.51128C92.925 3.51128 90.8476 5.05249 90.8476 7.16329C90.8476 9.12348 92.2602 10.162 94.3044 10.6143L95.9997 10.9828C97.861 11.4017 98.7752 11.7201 98.7752 12.9263C98.7752 14.0827 97.6616 14.8868 95.6506 14.8868ZM108.588 13.3291H110.682C110.233 15.4737 108.521 16.6462 106.377 16.6465C103.668 16.6465 101.89 14.7373 101.89 11.9223C101.89 9.10728 103.684 7.21489 106.377 7.21489C108.671 7.21489 110.216 8.55494 110.599 10.5654H108.488C108.255 9.52612 107.574 8.68848 106.377 8.68848C104.865 8.68848 104.001 9.94506 104.001 11.9218C104.001 13.9321 104.882 15.1718 106.377 15.1718C107.557 15.1718 108.255 14.5017 108.588 13.3291ZM114.053 3.71294H111.875V6.02477H114.053V3.71294ZM111.925 7.41557H114.002V16.4453H111.925V7.41557ZM119.821 7.21489C117.128 7.21489 115.417 9.15815 115.417 11.9223C115.417 14.6697 117.079 16.6465 119.821 16.6465C121.915 16.6465 123.428 15.7084 123.993 13.7818H121.882C121.566 14.6529 120.985 15.1723 119.838 15.1723C118.575 15.1723 117.694 14.2844 117.528 12.5422H124.142C124.174 12.3202 124.191 12.0963 124.192 11.872C124.192 9.05749 122.464 7.21489 119.821 7.21489ZM117.544 11.0847C117.759 9.45956 118.607 8.68894 119.821 8.68894C121.101 8.68894 121.965 9.64399 122.065 11.0847H117.544ZM127.699 9.81537C127.806 8.6652 128.783 7.21489 130.526 7.21489C132.586 7.21489 133.566 8.75594 133.567 10.7672V16.4462H131.489V11.1692C131.489 9.46032 130.775 8.70662 129.595 8.70662C128.431 8.70662 127.7 9.47724 127.7 11.2027V16.4456H125.623V7.4159H127.684V9.81537H127.699ZM70.9838 23.1919C69.2412 23.1919 68.2636 24.6422 68.1569 25.7924H68.1416V23.393H66.0811V32.4227H68.1585V27.1798C68.1585 25.4543 68.8897 24.6837 70.0531 24.6837C71.2331 24.6837 71.9479 25.4374 71.9479 27.1463V32.4233H74.0253V26.7442C74.0253 24.733 73.0446 23.1919 70.9838 23.1919ZM85.6641 31.1324C86.8275 31.1324 87.4933 30.3618 87.4933 28.6363L87.4938 23.3931H89.5712V32.4228H87.5102V30.0235H87.4949C87.3881 31.1737 86.4758 32.624 84.7334 32.624C82.6724 32.624 81.6919 31.0823 81.6919 29.0718V23.3926H83.7693V28.6698C83.7693 30.3787 84.4841 31.1324 85.6641 31.1324ZM139.413 15.1718C137.917 15.1718 137.036 13.9321 137.036 11.9218C137.036 9.94506 137.9 8.68848 139.413 8.68848C140.609 8.68848 141.29 9.52612 141.523 10.5654H143.634C143.252 8.55494 141.706 7.21489 139.413 7.21489C136.72 7.21489 134.925 9.10728 134.925 11.9223C134.925 14.7373 136.704 16.6465 139.413 16.6465C141.557 16.6465 143.268 15.474 143.717 13.3295H141.623C141.291 14.5017 140.593 15.1718 139.413 15.1718ZM148.92 7.21489C151.562 7.21489 153.29 9.05749 153.29 11.872C153.289 12.0963 153.272 12.3202 153.24 12.5422H146.626C146.792 14.2844 147.673 15.1723 148.936 15.1723C150.083 15.1723 150.664 14.6529 150.98 13.7818H153.091C152.526 15.7084 151.014 16.6465 148.92 16.6465C146.178 16.6465 144.516 14.6697 144.516 11.9223C144.516 9.15815 146.227 7.21489 148.92 7.21489ZM148.92 8.68894C147.706 8.68894 146.858 9.45956 146.642 11.0847H151.163C151.064 9.64399 150.199 8.68894 148.92 8.68894ZM54.0315 19.69L50.1756 32.2793L46.3199 19.69H43.9766L48.0649 32.422H52.2864L56.3582 19.69H54.0315ZM55.8755 27.8994C55.8755 25.1352 57.5867 23.1919 60.2796 23.1919C62.9223 23.1919 64.6507 25.0345 64.6506 27.8491C64.6493 28.0734 64.6326 28.2973 64.6005 28.5192H57.986C58.1522 30.2615 59.0332 31.1493 60.2963 31.1493C61.443 31.1493 62.0245 30.63 62.3405 29.7589H64.4513C63.8862 31.6854 62.3738 32.6235 60.2796 32.6235C57.5374 32.6235 55.8755 30.6467 55.8755 27.8994ZM60.2796 24.666C59.066 24.666 58.2176 25.4366 58.0022 27.0617H62.5233C62.4237 25.621 61.5595 24.666 60.2796 24.666ZM78.5453 29.7414V24.9328H80.6726V23.3914H76.487V23.3695C77.0327 23.3695 77.556 23.151 77.9419 22.7621C78.3278 22.3731 78.5447 21.8456 78.5447 21.2955V21.2471H76.4673V23.3914H74.7061V24.9328H76.4679V29.8414C76.4679 31.6003 77.7476 32.4211 79.4095 32.4211H80.706V30.8631H79.7585C78.994 30.8638 78.5453 30.6125 78.5453 29.7414ZM93.5642 26.1796H93.5796C93.7841 24.666 94.3916 23.1919 96.5391 23.1919V25.2525H95.974C94.3619 25.2525 93.5808 25.7885 93.5808 27.3633V32.4225H91.5034V23.3928H93.5642V26.1796ZM101.419 23.1919C98.7258 23.1919 97.0146 25.1352 97.0146 27.8994C97.0146 30.6467 98.6766 32.6235 101.419 32.6235C103.513 32.6235 105.025 31.6854 105.59 29.7589H103.48C103.164 30.63 102.582 31.1493 101.436 31.1493C100.172 31.1493 99.2915 30.2615 99.1253 28.5192H105.74C105.772 28.2973 105.789 28.0734 105.79 27.8491C105.79 25.0345 104.061 23.1919 101.419 23.1919ZM99.1413 27.0617C99.3568 25.4366 100.205 24.666 101.419 24.666C102.699 24.666 103.563 25.621 103.662 27.0617H99.1413ZM110.426 26.81L111.839 27.1115C113.717 27.5136 114.531 28.3512 114.531 29.793C114.531 31.5849 112.852 32.6242 110.559 32.6242C108.464 32.6242 106.853 31.6527 106.587 29.7427H108.681C108.897 30.8318 109.761 31.15 110.609 31.15C111.872 31.15 112.537 30.6976 112.537 29.994C112.537 29.3072 112.121 28.9722 110.825 28.7041L109.412 28.3858C107.784 28.0339 106.786 27.2801 106.786 25.9065C106.786 24.2467 108.448 23.1919 110.493 23.1919C112.387 23.1919 113.983 24.0296 114.365 25.7048H112.271C112.038 25.0341 111.307 24.6655 110.509 24.6655C109.612 24.6655 108.797 25.051 108.797 25.7379C108.797 26.3577 109.346 26.5755 110.426 26.81Z" fill="currentColor"></path>
</svg>