<svg width="168" height="48" viewBox="0 0 168 48" fill="none" xmlns="http://www.w3.org/2000/svg">
<path d="M52.06 42.43H54.75V23.4H52.06V42.43ZM72.93 28.59C70.89 28.59 69.41 29.54 68.5 30.79C67.94 29.57 66.65 28.59 64.77 28.59C62.89 28.59 61.47 29.44 60.58 30.68L60.2 28.97H58.02V42.43H60.65V34.82C60.65 32.34 62.1 31.1 63.74 31.1C65.19 31.1 66.32 31.86 66.32 34.34V42.44H68.95V34.83C68.95 32.35 70.37 31.11 72.01 31.11C73.65 31.11 74.62 31.87 74.62 34.35V42.45H77.25V33.51C77.25 30.08 75.37 28.62 72.93 28.62V28.59ZM84.03 15.58L81.77 14.85C81.39 15.99 80.13 17.19 78.14 17.19C75.78 17.19 74.16 15.31 74.03 13.14H84.37V12.08C84.37 7.97 81.9 5.23 78.11 5.23C74.32 5.23 71.48 8.28 71.48 12.3C71.48 16.32 74.22 19.42 78.14 19.42C81.37 19.42 83.3 17.65 84.02 15.59L84.03 15.58ZM78.14 7.45C80.5 7.45 81.87 9.24 82.01 11.04H74.06C74.35 9.14 75.78 7.45 78.14 7.45ZM63.67 16.59H54.75V10.64H62.54V8.25H54.75V2.45H63.67V0H52.06V19.03H63.67V16.58V16.59ZM160.37 0V19.03H163V0H160.37ZM152.23 5.22C149.22 5.22 147.48 6.66 146.86 9.27L149.2 9.84C149.44 8.37 150.22 7.39 152.18 7.39C154.14 7.39 155.03 8.37 155.03 10.14V10.44L151.83 10.9C147.88 11.47 146.65 13.16 146.65 15.3C146.65 17.64 148.45 19.41 151.24 19.41C153.36 19.41 154.52 18.62 155.16 17.73L155.43 19.03H157.66V10.11C157.66 6.79 155.24 5.22 152.23 5.22ZM155.02 14.24C155.02 16.25 153.54 17.2 151.88 17.2C150.22 17.2 149.19 16.38 149.19 15.16C149.19 13.77 150.24 13.2 152.04 12.93L155.02 12.47V14.24ZM114.34 31.03C116.03 31.03 117.3 32.01 117.81 33.59L120.23 32.77C119.42 30.35 117.38 28.58 114.35 28.58C110.21 28.58 107.55 31.87 107.55 35.7C107.55 39.53 110.16 42.79 114.35 42.79C117.28 42.79 119.32 41.02 120.21 38.63L117.82 37.81C117.28 39.36 116.02 40.34 114.35 40.34C111.91 40.34 110.19 38.41 110.19 35.69C110.19 32.97 111.91 31.01 114.35 31.01L114.34 31.03ZM101.64 5.19C99.6 5.19 98.12 6.14 97.21 7.39C96.65 6.17 95.36 5.19 93.48 5.19C91.6 5.19 90.18 6.04 89.29 7.28L88.91 5.57H86.73V19.03H89.36V11.42C89.36 8.94 90.81 7.69 92.45 7.69C93.9 7.69 95.03 8.45 95.03 10.93V19.03H97.66V11.42C97.66 8.94 99.08 7.69 100.72 7.69C102.36 7.69 103.32 8.45 103.32 10.93V19.03H105.95V10.09C105.95 6.66 104.07 5.2 101.63 5.2L101.64 5.19ZM127.63 40.33C126.74 40.33 126.23 39.87 126.23 38.75V31.35H129.83V28.96H126.23V25.45H123.6V28.96H121.21V31.35H123.6V39.07C123.6 41.46 125.08 42.79 127.12 42.79C128.79 42.79 129.75 42.14 130.13 41.7L128.92 39.8C128.68 40.04 128.25 40.32 127.63 40.32V40.33ZM130.29 5.19C128.38 5.19 127.01 6.01 126.07 7.28L125.67 5.57H123.49V19.03H126.12V11.53C126.12 9.05 127.68 7.7 129.48 7.7C131.09 7.7 132.33 8.41 132.33 11.04V19.03H134.96V10.57C134.96 6.85 133.13 5.19 130.28 5.19H130.29ZM68.96 0H66.33V19.03H68.96V0ZM114.88 5.22C111.09 5.22 108.25 8.27 108.25 12.29C108.25 16.31 110.99 19.41 114.91 19.41C118.14 19.41 120.07 17.64 120.8 15.58L118.54 14.85C118.16 15.99 116.9 17.19 114.91 17.19C112.55 17.19 110.93 15.31 110.8 13.14H121.14V12.08C121.14 7.97 118.66 5.23 114.88 5.23V5.22ZM110.83 11.04C111.12 9.14 112.55 7.45 114.91 7.45C117.27 7.45 118.64 9.24 118.78 11.04H110.83ZM100.16 28.62C97.15 28.62 95.41 30.06 94.79 32.67L97.13 33.24C97.37 31.77 98.15 30.79 100.11 30.79C102.07 30.79 102.96 31.77 102.96 33.54V33.84L99.76 34.3C95.81 34.87 94.58 36.56 94.58 38.7C94.58 41.04 96.38 42.81 99.17 42.81C101.29 42.81 102.45 42.02 103.09 41.13L103.36 42.43H105.59V33.51C105.59 30.19 103.17 28.62 100.16 28.62ZM102.96 37.64C102.96 39.65 101.48 40.6 99.82 40.6C98.16 40.6 97.13 39.78 97.13 38.56C97.13 37.17 98.18 36.6 99.98 36.33L102.96 35.87V37.64ZM86.76 28.62C84.51 28.62 83.05 29.73 82.27 30.79L81.92 28.97H79.75V48H82.38V40.69C83.21 41.83 84.69 42.81 86.79 42.81C90.79 42.81 93.16 39.44 93.16 35.72C93.16 32.02 90.61 28.63 86.77 28.63L86.76 28.62ZM86.44 40.41C84.02 40.41 82.36 38.45 82.36 35.71C82.36 32.97 84.08 31.01 86.44 31.01C88.8 31.01 90.52 32.97 90.52 35.71C90.52 38.45 88.85 40.41 86.44 40.41ZM143.04 16.94C142.15 16.94 141.64 16.48 141.64 15.36V7.96H145.24V5.57H141.64V2.06H139.01V5.57H136.62V7.96H139.01V15.68C139.01 18.07 140.49 19.41 142.53 19.41C144.2 19.41 145.16 18.76 145.54 18.32L144.33 16.42C144.09 16.66 143.66 16.94 143.04 16.94ZM35.83 28.49C34.44 28.49 33.48 27.51 32.37 26.37C31.13 25.1 29.73 23.67 27.53 23.67C25.08 23.67 22.98 24.83 21.65 25.81L21.39 26V28.72L22.41 27.89C23.38 27.11 25.33 25.79 27.53 25.79C28.87 25.79 29.81 26.75 30.9 27.87C32.16 29.15 33.57 30.61 35.83 30.61C37.39 30.61 39.37 29.82 40.76 29.16L41.12 28.99V26.62L40.21 27.07C37.73 28.31 36.4 28.49 35.82 28.49H35.83ZM35.83 33.86C34.44 33.86 33.48 32.88 32.37 31.75C31.13 30.48 29.73 29.05 27.53 29.05C25.08 29.05 22.98 30.21 21.65 31.19L21.39 31.38V34.1L22.41 33.27C23.38 32.49 25.33 31.17 27.53 31.17C28.87 31.17 29.81 32.13 30.9 33.25C32.16 34.53 33.57 35.99 35.83 35.99C37.39 35.99 39.37 35.2 40.76 34.54L41.12 34.37V32L40.21 32.45C37.73 33.69 36.4 33.87 35.82 33.87L35.83 33.86ZM35.83 39.24C34.44 39.24 33.48 38.26 32.37 37.13C31.13 35.86 29.73 34.43 27.53 34.43C25.08 34.43 22.98 35.59 21.65 36.57L21.39 36.76V39.48L22.41 38.65C23.38 37.87 25.33 36.55 27.53 36.55C28.87 36.55 29.81 37.51 30.9 38.63C32.16 39.91 33.57 41.37 35.83 41.37C37.39 41.37 39.37 40.58 40.76 39.92L41.12 39.75V37.38L40.21 37.83C37.73 39.07 36.4 39.25 35.82 39.25L35.83 39.24ZM0 42.53H19.81L9.9 22.5L0 42.53ZM3.53 40.29L9.91 27.54L16.26 40.29H3.53ZM36.66 11.75H21.38V13.8H36.66C38.02 13.8 39.12 14.92 39.12 16.29C39.12 17.66 38.02 18.78 36.66 18.78C35.3 18.78 34.2 17.66 34.2 16.29C34.2 16.16 34.21 16.03 34.23 15.91L34.32 15.3H32.26L32.21 15.77C32.19 15.95 32.18 16.12 32.18 16.3C32.18 18.8 34.19 20.84 36.67 20.84C39.15 20.84 41.16 18.81 41.16 16.3C41.16 13.79 39.15 11.76 36.67 11.76L36.66 11.75ZM30.07 10H30.2C32.61 9.93 34.55 7.92 34.55 5.47C34.55 2.97 32.54 0.93 30.06 0.93C28.75 0.93 27.56 1.51 26.74 2.42C26.5 2.69 26.29 2.99 26.11 3.31C25.76 3.95 25.57 4.69 25.57 5.47C25.57 5.64 25.58 5.82 25.6 6L25.65 6.47H27.71L27.62 5.86C27.5508 5.41507 27.6035 4.9597 27.7725 4.54236C27.9416 4.12502 28.2206 3.76133 28.58 3.49C28.99 3.18 29.5 2.99 30.05 2.99C30.87 2.99 31.61 3.4 32.05 4.04L32.17 4.22C32.19 4.24 32.2 4.27 32.21 4.29C32.4 4.64 32.51 5.05 32.51 5.47C32.51 6.03 32.32 6.55 32.01 6.97C31.56 7.57 30.85 7.96 30.05 7.96H21.35V10.01H30.05L30.07 10ZM36.66 0.93C35.91 0.93 35.2 1.12 34.58 1.45C35.03 1.96 35.4 2.55 35.66 3.2C35.97 3.06 36.31 2.98 36.67 2.98C38.03 2.98 39.13 4.1 39.13 5.47C39.13 6.84 38.03 7.96 36.67 7.96H35.57C35.2191 8.74087 34.7081 9.4393 34.07 10.01H36.67C39.14 10.01 41.16 7.98 41.16 5.47C41.16 2.96 39.15 0.93 36.67 0.93H36.66ZM8.84 17.12V20.88H10.93V17.12C10.59 17.18 10.24 17.21 9.88 17.21C9.52 17.21 9.17 17.18 8.83 17.12H8.84ZM13.5 16.04L16.13 18.7L17.61 17.2L14.98 14.54C14.57 15.12 14.07 15.63 13.5 16.04ZM2.15 17.21L3.63 18.71L6.26 16.05C5.69 15.64 5.19 15.13 4.78 14.55L2.15 17.21ZM6.27 5.73L3.64 3.07L2.16 4.57L4.79 7.23C5.2 6.65 5.7 6.14 6.27 5.73ZM19.77 9.83H16.05C16.11 10.17 16.14 10.53 16.14 10.89C16.14 11.25 16.11 11.61 16.05 11.95H19.77V9.83ZM10.93 4.65V0.88H8.84V4.64C9.18 4.58 9.53 4.55 9.89 4.55C10.25 4.55 10.6 4.58 10.94 4.64L10.93 4.65ZM3.63 10.88C3.63 10.52 3.66 10.16 3.72 9.82H0V11.94H3.72C3.66 11.6 3.63 11.24 3.63 10.88ZM14.98 7.22L17.61 4.56L16.13 3.06L13.5 5.72C14.07 6.13 14.57 6.64 14.98 7.22ZM9.88 15.39C12.34 15.39 14.33 13.37 14.33 10.88C14.33 8.39 12.33 6.37 9.88 6.37C7.43 6.37 5.43 8.39 5.43 10.88C5.43 13.37 7.43 15.39 9.88 15.39ZM9.88 8.39C11.24 8.39 12.34 9.51 12.34 10.88C12.34 12.25 11.24 13.37 9.88 13.37C8.52 13.37 7.42 12.25 7.42 10.88C7.42 9.51 8.52 8.39 9.88 8.39Z" fill="black"/>
</svg>
