<svg width="2254" height="370" viewBox="0 0 2254 370" fill="none" xmlns="http://www.w3.org/2000/svg">
<g clip-path="url(#clip0_578_4)">
<path d="M1905 5.86815e-06H1776.7V2.00001C1776.72 16.14 1788.18 27.6 1802.32 27.62H1904.25L1730.58 158.58C1722.22 164.68 1719.54 175.96 1724.28 185.16C1728.09 192.42 1735.64 196.95 1743.84 196.9H1871.64C1872.74 196.9 1873.64 196 1873.64 194.9C1873.64 180.74 1763.26 169.27 1763.26 169.27L1921.79 48.94C1928.11 44.26 1932.11 37.09 1932.79 29.26C1933.13 24.59 1932.27 19.92 1930.29 15.68C1925.59 6.01001 1915.75 -0.0899941 1905 5.86815e-06Z" fill="black"/>
<path d="M532.05 0C517.89 0 506.41 11.48 506.41 25.64V159.93L367.58 8.13L367.46 8C359.31 -0.11 346.98 -2.27 336.56 2.59C326.9 7.28 320.79 17.12 320.88 27.86V196.86H322.88C337 196.84 348.45 185.42 348.5 171.3V28.2L497.37 190.5L497.49 190.62C501.49 194.65 506.93 196.91 512.6 196.9C516 196.9 519.36 196.08 522.39 194.53C529.58 190.68 534.05 183.16 534 175V0H532.05Z" fill="black"/>
<path d="M1601 0C1586.84 0 1575.36 11.48 1575.36 25.64V196.9H1577.36C1591.52 196.9 1603 185.42 1603 171.26V0H1601Z" fill="black"/>
<path d="M1426 106.11H1398.77V108.11C1398.77 122.58 1410.49 134.3 1424.96 134.31H1426C1427.18 134.31 1428.13 135.26 1428.13 136.44V160.81C1428.13 161.4 1428.08 161.98 1427.95 162.55C1427.12 166.17 1423.9 168.75 1420.18 168.76H1358.4C1319.4 168.76 1287.4 137.47 1287.06 99.01C1286.88 80.28 1294.23 62.26 1307.47 49.01C1321 35.64 1339.28 28.17 1358.3 28.25H1418C1432.46 28.25 1444.19 16.51 1444.18 2.05C1444.18 2.03 1444.18 2.02 1444.18 2V0H1357.32C1302.95 0 1258.87 44.07 1258.87 98.45C1258.87 98.7 1258.87 98.95 1258.87 99.2C1259.27 153.08 1303.87 196.92 1358.38 196.92H1420.16C1440.1 196.92 1456.27 180.76 1456.28 160.82V136.42C1456.28 119.69 1442.73 106.13 1426 106.11Z" fill="black"/>
<path d="M1117.7 152C1108.13 135.23 1096.54 115.2 1092.33 108.55C1101.47 105.19 1114.33 100.25 1121.43 93.1496C1132.43 82.1496 1138.82 65.8096 1138.82 48.4396V28.5496C1138.82 12.8196 1126.07 0.0695703 1110.34 0.0595703H957.64C954.75 0.0595703 952.4 2.40957 952.4 5.29957V194.69C952.4 195.3 952.65 195.89 953.08 196.32C953.51 196.74 954.09 196.98 954.69 196.98C968.67 196.98 980 185.64 980 171.66V29.9296C980 28.6896 981 27.6896 982.24 27.6896C982.24 27.6896 982.24 27.6896 982.25 27.6896H1110.32C1110.79 27.6896 1111.17 28.0796 1111.18 28.5496V61.1196C1111.18 76.4096 1093.03 85.6396 1078.45 93.0596C1075.07 94.7796 1071.87 96.4096 1069.1 97.9996C1066.31 99.5496 1064.19 102.08 1063.15 105.1C1061.71 109.47 1062.77 114.28 1065.92 117.63C1072.92 125.18 1081.64 136.3 1090.83 148.07C1113.77 177.49 1129.53 196.77 1139.11 196.77C1139.87 196.77 1141.5 194.39 1133.84 180.6C1129.62 173 1123.88 162.8 1117.7 152Z" fill="black"/>
<path d="M678.71 0C664.55 0 653.07 11.48 653.07 25.64V27.64H807.72C821.88 27.64 833.36 16.16 833.36 2V0H678.71Z" fill="black"/>
<path d="M786 112.27C800.14 112.25 811.6 100.77 811.6 86.6299V84.6299H678.71C664.55 84.6299 653.07 96.1099 653.07 110.27V112.27H786Z" fill="black"/>
<path d="M678.71 169.3C664.55 169.3 653.08 180.76 653.07 194.92V196.93H807.72C821.88 196.93 833.36 185.45 833.36 171.29V169.29H678.71V169.3Z" fill="black"/>
<path d="M0 0V2C0.01 16.15 11.49 27.62 25.64 27.62H201.83V0H0Z" fill="black"/>
<path d="M43.3198 84.6504V86.6504C43.3298 100.81 54.8198 112.28 68.9798 112.27C68.9798 112.27 68.9898 112.27 68.9998 112.27H201.84V84.6604H43.3198V84.6504Z" fill="black"/>
<path d="M113.06 169.3V171.3C113.06 185.46 124.54 196.94 138.7 196.94H201.84V169.31H113.06V169.3Z" fill="black"/>
<path d="M2052 0V27.61H2228.19C2242.32 27.58 2253.76 16.13 2253.78 2V0H2052Z" fill="black"/>
<path d="M2052 84.6504V112.25H2184.89C2199.05 112.25 2210.53 100.77 2210.53 86.6104V84.6104H2052V84.6504Z" fill="black"/>
<path d="M2052 169.3V196.9H2107.12C2121.28 196.9 2132.76 185.42 2132.76 171.26V169.26H2052V169.3Z" fill="black"/>
<path d="M549.92 354.01C559.97 354.01 564.77 347.46 565.1 339.82H582.46C582.24 355.98 570.34 369.52 550.14 369.52C526.56 369.52 515.2 354.67 515.2 334.8V324.75C515.2 304.88 526.56 290.03 550.14 290.03C570.34 290.03 582.24 303.57 582.46 319.73H565.1C564.77 312.09 559.97 305.54 549.92 305.54C538.56 305.54 533.98 313.07 533.98 323.88V335.67C533.98 346.48 538.56 354.01 549.92 354.01Z" fill="black"/>
<path d="M766.84 353.79H739.22L734.96 367.98H716.18L743.48 291.55H762.7L789.99 367.98H771.21L766.84 353.79ZM743.8 338.72H762.25L753.08 308.48L743.8 338.72Z" fill="black"/>
<path d="M947.86 344.94V367.98H929.08V291.55H961.73C979.74 291.55 991.43 301.92 991.43 317.97C991.43 334.02 979.53 344.94 961.73 344.94H947.86ZM960.63 307.16H947.86V329.32H960.63C968.93 329.32 972.64 324.52 972.64 317.96C972.64 311.4 968.93 307.15 960.63 307.15V307.16Z" fill="black"/>
<path d="M1149.73 367.98H1130.95V291.55H1149.73V367.98Z" fill="black"/>
<path d="M1349.18 291.55V307.38H1328.54V367.98H1309.76V307.38H1289.13V291.55H1349.18Z" fill="black"/>
<path d="M1525.26 353.79H1497.64L1493.38 367.98H1474.6L1501.9 291.55H1521.12L1548.41 367.98H1529.63L1525.26 353.79ZM1502.22 338.72H1520.67L1511.5 308.48L1502.22 338.72Z" fill="black"/>
<path d="M1706.27 291.55V352.37H1740.01V367.98H1687.49V291.55H1706.27Z" fill="black"/>
</g>
<defs>
<clipPath id="clip0_578_4">
<rect width="2253.78" height="369.51" fill="white"/>
</clipPath>
</defs>
</svg>
