<svg width="910" height="124" viewBox="0 0 910 124" fill="none" xmlns="http://www.w3.org/2000/svg">
<g clip-path="url(#clip0_578_35)">
<path d="M345.585 56.0513H345.597V56.0401L345.585 56.0513ZM418.591 55.7042C417.512 55.4837 416.53 55.0934 415.646 54.537C414.098 53.5938 412.664 51.8972 411.335 49.4508L401.324 31.2744C411.326 29.5508 416.807 24.6038 416.807 16.4299C416.807 13.5967 416.021 11.0112 414.445 8.67679C412.87 6.33908 410.809 4.67302 408.269 3.67213C405.007 2.50491 401.454 1.92136 397.193 1.92136L391.605 1.83645H346.594C346.043 1.83645 345.597 2.28551 345.597 2.83952C345.597 3.39182 346.041 3.84024 346.59 3.84258L348.247 3.84957C352.281 3.84957 354.99 4.54514 356.37 5.93634C357.253 6.82536 357.699 8.57611 357.699 11.1888V46.7104C357.699 50.7685 357.075 53.3403 355.833 54.4261C354.589 55.5085 352.059 56.0514 348.247 56.0514H346.544C346.021 56.0514 345.597 56.4781 345.597 57.0044C345.597 57.5307 346.021 57.9573 346.544 57.9573H386.176C386.702 57.9573 387.129 57.5282 387.129 56.9988C387.129 56.4694 386.702 56.0402 386.176 56.0402H385.415C384.439 56.0402 382.959 56.0154 381.741 55.7044C380.523 55.3933 379.859 54.985 379.087 54.3709C378.314 53.7601 377.801 52.8983 377.555 51.7854C377.306 50.6759 377.181 48.9793 377.181 46.6992V32.7574C377.181 32.0302 377.767 31.4408 378.49 31.4408H380.881C381.36 31.4408 381.8 31.7033 382.029 32.1255L395.709 57.2726C395.938 57.6948 396.379 57.9573 396.857 57.9573H421.4C421.931 57.9573 422.362 57.524 422.362 56.9896C422.362 56.4741 421.959 56.0426 421.447 56.0242C420.385 55.986 419.432 55.8792 418.591 55.7042ZM359.962 39.7539V35.9671H366.74C367.78 35.9671 368.623 36.8148 368.623 37.8605C368.623 38.9062 367.78 39.7539 366.74 39.7539H359.962ZM368.623 43.1696C368.623 44.2152 367.78 45.0629 366.74 45.0629H359.962V41.2762H366.74C367.78 41.2762 368.623 42.1239 368.623 43.1696ZM359.962 34.4447V30.658H366.74C367.78 30.658 368.623 31.5056 368.623 32.5513C368.623 33.5971 367.78 34.4447 366.74 34.4447H359.962ZM359.962 29.1356V25.3489H366.74C367.78 25.3489 368.623 26.1966 368.623 27.2422C368.623 28.2878 367.78 29.1355 366.74 29.1355L359.962 29.1356ZM359.962 23.8265V20.0397H366.74C367.78 20.0397 368.623 20.8874 368.623 21.9331C368.623 22.9788 367.78 23.8265 366.74 23.8265H359.962ZM359.962 18.5174V14.7306H366.74C367.78 14.7306 368.623 15.5783 368.623 16.624C368.623 17.6697 367.78 18.5174 366.74 18.5174H359.962ZM359.962 13.2083V11.1886C359.962 10.5579 359.93 9.97695 359.881 9.42154H366.74C367.78 9.42154 368.623 10.2692 368.623 11.3149C368.623 12.3605 367.78 13.2082 366.74 13.2082L359.962 13.2083ZM359.962 46.7102V46.5852H366.771C367.793 46.5852 368.622 47.4144 368.628 48.4417C368.628 48.459 368.628 48.4762 368.628 48.4935C368.635 49.5291 367.801 50.372 366.772 50.372H359.75C359.886 49.2875 359.962 48.0813 359.962 46.7102ZM368.623 6.00572C368.623 7.05143 367.78 7.89912 366.74 7.89912H359.676C359.366 6.34445 358.801 5.16316 357.972 4.32869C357.899 4.25504 357.824 4.18294 357.746 4.11232H366.74C367.78 4.11232 368.623 4.96 368.623 6.00572ZM357.783 55.6811C358.577 54.7863 359.138 53.5322 359.495 51.8943H367.535C368.29 51.8943 368.968 52.3511 369.254 53.0541C369.26 53.0694 369.267 53.0848 369.273 53.1003C369.776 54.3298 368.875 55.6811 367.553 55.6811H357.783ZM393.718 28.9961C393.049 29.1218 392.413 29.1352 392.396 29.1355H392.393C392.896 28.7812 393.366 28.3918 393.801 27.9675C394.584 27.205 395.237 26.3226 395.789 25.3488H399.983C400.856 25.3488 401.136 26.5326 400.356 26.9282C398.552 27.8436 396.346 28.5288 393.718 28.9961ZM403.362 23.8264H396.523C396.989 22.6774 397.333 21.4198 397.533 20.0396H403.383C404.842 20.0396 405.759 21.6629 404.978 22.9023C404.971 22.9141 404.963 22.926 404.956 22.9378C404.607 23.4865 404.009 23.8264 403.362 23.8264ZM404.715 18.5173H397.702C397.743 17.9491 397.764 17.3644 397.764 16.7622C397.764 16.0635 397.733 15.3869 397.674 14.7304H404.715C405.75 14.7304 406.582 15.58 406.574 16.6205C406.574 16.6364 406.574 16.6523 406.574 16.6682C406.565 17.6928 405.734 18.5173 404.715 18.5173ZM403.372 13.2082H397.477C397.246 11.8418 396.875 10.5789 396.364 9.42147H403.349C404.004 9.42147 404.614 9.76206 404.948 10.3285C404.955 10.3412 404.963 10.3538 404.97 10.3666C405.703 11.6234 404.82 13.2082 403.372 13.2082ZM399.113 7.89903H396.416C395.891 7.89903 395.417 7.62285 395.117 7.18988C394.418 6.18036 393.584 5.27636 392.609 4.48454C392.453 4.35829 392.293 4.23631 392.127 4.11846C395.006 4.29155 397.528 4.86358 399.564 5.75244C400.669 6.23482 400.317 7.89903 399.113 7.89903ZM377.181 28.2067V5.15485C377.181 4.42767 377.767 3.83822 378.49 3.83822H381.657C386.022 3.83822 389.2 4.64575 391.19 6.25744C394.064 8.59181 395.501 12.0935 395.501 16.7622C395.501 25.2686 391.136 29.5234 382.403 29.5234H378.49C377.767 29.5234 377.181 28.9338 377.181 28.2067ZM384.281 31.5223C385.963 31.3935 389.875 30.9901 391.852 30.7831C392.576 30.7074 393.266 31.0755 393.613 31.7184C393.622 31.7346 393.631 31.7509 393.64 31.7674C394.292 32.9743 393.424 34.4446 392.058 34.4446H385.871L384.281 31.5223ZM386.699 35.9669H394.815C395.5 35.9669 396.131 36.3409 396.463 36.9435C397.157 38.2054 396.249 39.7537 394.815 39.7537H388.759L386.699 35.9669ZM389.587 41.276H397.737C398.421 41.276 399.052 41.65 399.383 42.2526C400.078 43.5145 399.17 45.0627 397.737 45.0627H391.646L389.587 41.276ZM392.475 46.5851H400.658C401.342 46.5851 401.973 46.9591 402.305 47.5617C402.999 48.8236 402.092 50.3719 400.658 50.3719H394.534L392.475 46.5851ZM397.422 55.681L395.362 51.8942H403.736C404.332 51.8942 404.903 52.1733 405.242 52.6663C405.252 52.6811 405.263 52.696 405.273 52.7107C406.141 53.9662 405.288 55.6811 403.767 55.6811L397.422 55.681ZM645.47 55.704C644.39 55.4834 643.409 55.0932 642.525 54.5368C640.977 53.5935 639.543 51.897 638.214 49.4506L628.203 31.2742C638.205 29.5506 643.685 24.6035 643.685 16.4297C643.685 13.5965 642.899 11.011 641.324 8.67657C639.749 6.33886 637.688 4.67278 635.148 3.67189C631.886 2.50467 628.333 1.92114 624.072 1.92114L618.484 1.83621H573.476C572.923 1.83621 572.475 2.28644 572.475 2.84208C572.474 3.39827 572.923 3.84933 573.476 3.84933H575.126C579.16 3.84933 581.869 4.5449 583.248 5.93611C584.132 6.82512 584.577 8.57587 584.577 11.1885V46.7101C584.577 50.7682 583.953 53.3401 582.712 54.4259C581.467 55.5083 578.937 56.0512 575.126 56.0512H573.423C572.9 56.0512 572.476 56.4779 572.476 57.0041C572.476 57.5304 572.9 57.9571 573.423 57.9571H613.054C613.581 57.9571 614.007 57.5279 614.007 56.9986C614.007 56.4692 613.581 56.04 613.054 56.04H612.739C612.739 56.04 609.838 56.0151 608.62 55.7041C607.402 55.3931 606.738 54.9848 605.965 54.3707C605.193 53.7599 604.68 52.898 604.434 51.7851C604.184 50.6756 604.06 48.9791 604.06 46.699V32.7572C604.06 32.03 604.646 31.4405 605.368 31.4405H607.76C608.238 31.4405 608.678 31.703 608.908 32.1252L622.587 57.2724C622.817 57.6946 623.257 57.9571 623.736 57.9571H647.431C647.962 57.9571 648.393 57.5238 648.393 56.9894C648.393 56.4738 647.99 56.0424 647.477 56.024C646.415 55.9858 646.311 55.879 645.47 55.704ZM586.84 39.7537V35.9669H593.619C594.659 35.9669 595.501 36.8145 595.501 37.8603C595.501 38.906 594.659 39.7537 593.619 39.7537H586.84ZM595.501 43.1693C595.501 44.215 594.659 45.0626 593.619 45.0626H586.84V41.2759H593.619C594.659 41.2759 595.501 42.1237 595.501 43.1693ZM586.84 34.4445V30.6577H593.619C594.659 30.6577 595.501 31.5054 595.501 32.5511C595.501 33.5968 594.659 34.4445 593.619 34.4445H586.84ZM586.84 29.1354V25.3487H593.619C594.659 25.3487 595.501 26.1963 595.501 27.242C595.501 28.2876 594.659 29.1353 593.619 29.1353L586.84 29.1354ZM586.84 23.8262V20.0394H593.619C594.659 20.0394 595.501 20.8871 595.501 21.9328C595.501 22.9785 594.659 23.8262 593.619 23.8262H586.84ZM586.84 18.5172V14.7304H593.619C594.659 14.7304 595.501 15.578 595.501 16.6238C595.501 17.6695 594.659 18.5172 593.619 18.5172H586.84ZM586.84 13.208V11.1884C586.84 10.5577 586.808 9.97672 586.76 9.42131H593.619C594.659 9.42131 595.501 10.269 595.501 11.3146C595.501 12.3603 594.659 13.2079 593.619 13.2079L586.84 13.208ZM586.84 46.71V46.585H593.65C594.671 46.585 595.501 47.4142 595.507 48.4415C595.507 48.4587 595.507 48.476 595.507 48.4933C595.513 49.5288 594.68 50.3718 593.65 50.3718H586.628C586.765 49.2872 586.84 48.0811 586.84 46.71ZM595.501 6.00548C595.501 7.05119 594.659 7.89888 593.619 7.89888H586.555C586.244 6.34421 585.68 5.16292 584.85 4.32845C584.777 4.2548 584.702 4.18271 584.625 4.11209H593.619C594.659 4.11209 595.501 4.95976 595.501 6.00548ZM584.662 55.6808C585.456 54.7861 586.017 53.532 586.374 51.8941H594.413C595.168 51.8941 595.847 52.3509 596.133 53.0539C596.139 53.0692 596.145 53.0846 596.152 53.1C596.655 54.3296 595.754 55.6809 594.432 55.6809L584.662 55.6808ZM620.597 28.9959C619.927 29.1215 619.291 29.135 619.275 29.1353H619.272C619.775 28.7809 620.245 28.3916 620.68 27.9673C621.463 27.2048 622.116 26.3224 622.668 25.3486H626.862C627.735 25.3486 628.015 26.5323 627.235 26.928C625.43 27.8434 623.225 28.5286 620.597 28.9959ZM630.24 23.8261H623.401C623.868 22.6772 624.212 21.4195 624.412 20.0394H630.262C631.721 20.0394 632.637 21.6626 631.857 22.902C631.85 22.9139 631.842 22.9257 631.835 22.9375C631.486 23.4863 630.888 23.8261 630.24 23.8261ZM631.594 18.5171H624.581C624.621 17.9489 624.642 17.3642 624.642 16.762C624.642 16.0633 624.612 15.3867 624.553 14.7302H631.594C632.629 14.7302 633.461 15.5798 633.453 16.6203C633.453 16.6362 633.453 16.652 633.452 16.668C633.443 17.6926 632.612 18.5171 631.594 18.5171ZM630.25 13.2079H624.356C624.125 11.8415 623.754 10.5787 623.243 9.42123H630.228C630.883 9.42123 631.492 9.76182 631.826 10.3283C631.834 10.3409 631.841 10.3536 631.849 10.3664C632.582 11.6231 631.699 13.2079 630.25 13.2079ZM625.991 7.89881H622.454C621.671 6.59943 620.685 5.45722 619.488 4.4843C619.332 4.35806 619.171 4.23608 619.006 4.11822C621.884 4.29131 624.406 4.86336 626.442 5.75222C627.547 6.2346 627.196 7.89881 625.991 7.89881ZM604.06 28.2065V5.15461C604.06 4.42743 604.646 3.838 605.369 3.838H608.536C612.901 3.838 616.079 4.64551 618.069 6.2572C620.943 8.59157 622.38 12.0932 622.38 16.762C622.38 25.2683 618.015 29.5232 609.281 29.5232H605.368C604.646 29.5232 604.06 28.9336 604.06 28.2065ZM611.16 31.5221C612.841 31.3933 616.754 30.9899 618.731 30.7829C619.454 30.7071 620.145 31.0752 620.492 31.7181C620.501 31.7344 620.51 31.7507 620.519 31.7671C621.171 32.9741 620.302 34.4444 618.937 34.4444H612.749L611.16 31.5221ZM613.577 35.9666H621.694C622.379 35.9666 623.01 36.3406 623.341 36.9433C624.036 38.2052 623.128 39.7535 621.694 39.7535H615.637L613.577 35.9666ZM616.465 41.2758H624.615C625.3 41.2758 625.931 41.6498 626.262 42.2523C626.956 43.5143 626.049 45.0625 624.615 45.0625H618.525L616.465 41.2758ZM619.353 46.5849H627.536C628.221 46.5849 628.852 46.9589 629.183 47.5615C629.878 48.8234 628.97 50.3717 627.536 50.3717H621.413L619.353 46.5849ZM624.301 55.6808L622.241 51.894H630.615C631.211 51.894 631.782 52.173 632.121 52.6661C632.131 52.6809 632.141 52.6957 632.152 52.7105C633.02 53.966 632.166 55.6808 630.646 55.6808H624.301ZM566.118 56.0431C563.021 56.0431 561.049 55.3476 559.339 53.9563C558.786 53.5119 558.233 52.9777 557.888 52.6229C556.767 51.4702 555.698 49.7601 554.282 47.2043C552.985 44.8615 532.263 7.36802 528.816 1.1311C528.517 0.590295 527.95 0.254982 527.335 0.254982C526.722 0.254982 526.156 0.588588 525.856 1.12714L503.38 41.5346C500.56 46.5358 497.935 50.2037 495.503 52.5415C493.314 54.6425 490.858 55.798 488.133 56.0082C487.622 56.0476 487.215 56.4514 487.215 56.9672V57.0004C487.215 57.5305 487.642 57.9602 488.169 57.9602H516.435C516.962 57.9602 517.389 57.5305 517.389 57.0004C517.389 56.4785 516.978 56.0509 516.459 56.0414C515.996 56.0329 515.439 56.011 514.984 55.9584C513.672 55.8066 512.444 55.5553 511.007 54.7911C509.38 53.9262 507.799 52.6094 506.861 50.9129C505.92 49.2198 505.451 47.3977 505.451 45.4535C505.451 44.7948 505.544 44.0966 505.731 43.358C505.879 42.7754 506.407 42.3658 507.005 42.3658H528.218C528.698 42.3658 529.139 42.63 529.368 43.0543L532.643 49.1213C533.307 50.4005 533.638 51.4286 533.638 52.2056C533.638 53.3728 533.112 54.3059 532.063 55.0014C531.014 55.697 529.769 56.043 528.332 56.043H525.058C524.532 56.043 524.105 56.4722 524.105 57.0016C524.105 57.531 524.532 57.9601 525.058 57.9601H566.758C567.285 57.9601 567.711 57.531 567.711 57.0016C567.711 56.4722 567.285 56.043 566.758 56.043L566.118 56.0431ZM495.282 55.6808C495.981 55.1759 496.659 54.6084 497.316 53.9778C497.769 53.5428 498.224 53.0747 498.682 52.5728C499.494 51.683 500.965 51.8118 501.554 52.8644C501.565 52.8838 501.575 52.9032 501.586 52.9224C502.285 54.1523 501.449 55.6808 500.04 55.6808H495.282ZM536.07 31.625C536.077 31.6377 536.085 31.6504 536.092 31.6631C536.781 32.9124 535.881 34.4443 534.461 34.4443H527.273L525.223 30.6575H534.44C535.117 30.6575 535.742 31.0296 536.07 31.625ZM531.532 29.1351H524.399L522.349 25.3484H531.511C532.188 25.3484 532.811 25.7152 533.139 26.311C533.146 26.3236 533.153 26.3362 533.16 26.3488C533.849 27.5982 532.952 29.1351 531.532 29.1351ZM528.605 23.826H521.525L519.475 20.0392H528.584C529.262 20.0392 529.885 20.4061 530.213 21.0023C530.22 21.0147 530.227 21.0271 530.234 21.0395C530.922 22.2891 530.025 23.826 528.605 23.826ZM524.89 11.3363C524.899 11.3538 524.909 11.3713 524.919 11.389C525.367 12.2032 524.784 13.2078 523.859 13.2078H521.729L522.77 11.3365C523.235 10.5009 524.429 10.4986 524.89 11.3363ZM520.882 14.7301H525.66C526.338 14.7301 526.961 15.0982 527.289 15.6945C527.296 15.7066 527.303 15.7188 527.309 15.7309C527.997 16.9805 527.1 18.517 525.68 18.517H518.776L520.882 14.7301ZM507.133 39.4773L516.738 21.6012C516.984 21.1421 517.639 21.1405 517.888 21.5984L527.603 39.4745C527.842 39.9132 527.526 40.4486 527.029 40.4486H507.709C507.213 40.4486 506.897 39.9159 507.133 39.4773ZM528.098 35.9665H537.372C538.048 35.9665 538.674 36.3389 539.002 36.9336C539.009 36.9465 539.017 36.9594 539.024 36.9724C539.714 38.2214 538.814 39.7533 537.394 39.7533H530.148L528.098 35.9665ZM533.022 45.0624L530.972 41.2757H540.31C540.985 41.2757 541.609 41.6459 541.938 42.2391C541.946 42.2527 541.953 42.2662 541.961 42.2798C542.653 43.5286 541.754 45.0624 540.332 45.0624H533.022ZM534.64 48.0511L534.631 48.0352L533.846 46.5847H543.275C543.94 46.5847 544.554 46.9403 544.886 47.5201C544.894 47.5342 544.902 47.5483 544.911 47.5626C545.627 48.8105 544.731 50.3715 543.298 50.3715H535.607C535.4 49.6673 535.083 48.9034 534.648 48.067L534.64 48.0511ZM534.682 55.6806C535.484 54.7096 535.901 53.5327 535.901 52.2054C535.901 52.1037 535.893 51.9986 535.887 51.8938H546.593C547.16 51.8938 547.692 52.1528 548.047 52.5975C548.058 52.6113 548.069 52.6253 548.08 52.6393C549.06 53.8596 548.185 55.6807 546.626 55.6807L534.682 55.6806ZM68.3303 37.4225C68.0015 37.4372 67.6939 37.6001 67.4909 37.8606C62.2404 44.5963 57.1257 49.4323 52.1438 52.3716C47.7754 54.8214 43.1068 56.0429 38.1313 56.0429H32.8928C32.1699 56.0429 31.5839 55.4534 31.5839 54.7263V13.0974C31.5839 8.65248 32.3973 5.72743 34.2351 4.67589C35.3499 4.03805 37.3858 3.84118 41.0357 3.84118H42.692C43.2416 3.84118 43.6871 3.39306 43.6871 2.84029C43.6871 2.28752 43.2416 1.8394 42.692 1.8394H0.995128C0.44558 1.8394 7.07136e-05 2.28752 7.07136e-05 2.84029C7.07136e-05 3.39306 0.44558 3.84118 0.995128 3.84118H2.65143C6.68573 3.84118 9.39446 4.53674 10.7742 5.92795C11.6579 6.81696 12.1033 8.56772 12.1033 11.1804V46.702C12.1033 50.76 11.4791 53.3319 10.2379 54.4178C8.99305 55.5001 6.46313 56.043 2.65143 56.043H0.95296C0.426659 56.043 0 56.4722 0 57.0016C0 57.531 0.426659 57.9601 0.95296 57.9601H66.4578C67.1402 57.9601 67.7109 57.4387 67.7763 56.7555L69.509 38.6713C69.5751 37.9812 69.0188 37.3918 68.3303 37.4225ZM21.1825 55.6839H12.1773C12.9747 54.7904 13.5384 53.5364 13.8964 51.8972H21.1825C22.2222 51.8972 23.0649 52.7448 23.0649 53.7906C23.0649 54.8363 22.2222 55.6839 21.1825 55.6839ZM21.1825 50.3748H14.1524C14.2897 49.2875 14.3657 48.0777 14.3657 46.7018V46.588H21.1826C22.2222 46.588 23.065 47.4357 23.065 48.4814C23.065 49.5271 22.2222 50.3748 21.1825 50.3748ZM21.1825 45.0657H14.3657V41.2789H21.1825C22.2222 41.2789 23.0649 42.1266 23.0649 43.1723C23.0649 44.218 22.2222 45.0657 21.1825 45.0657ZM21.1825 39.7565H14.3657V35.9697H21.1825C22.2222 35.9697 23.0649 36.8174 23.0649 37.8631C23.0649 38.9088 22.2222 39.7565 21.1825 39.7565ZM21.1825 34.4474H14.3657V30.6606H21.1825C22.2222 30.6606 23.0649 31.5083 23.0649 32.554C23.0649 33.5997 22.2222 34.4474 21.1825 34.4474ZM21.1825 29.1382H14.3657V25.3515H21.1825C22.2221 25.3515 23.0648 26.1992 23.0648 27.2448C23.0648 28.2905 22.2221 29.1382 21.1825 29.1382ZM21.1825 23.8292H14.3657V20.0424H21.1825C22.2222 20.0424 23.0649 20.8901 23.0649 21.9358C23.0649 22.9815 22.2222 23.8292 21.1825 23.8292ZM21.1825 18.52H14.3657V14.7332H21.1825C22.2222 14.7332 23.0649 15.5809 23.0649 16.6266C23.0649 17.6724 22.2222 18.52 21.1825 18.52ZM21.2558 13.2109H14.3657V11.1801C14.3657 10.5536 14.3341 9.97624 14.286 9.4241H21.2582C22.3346 9.4241 23.1781 10.3356 23.1159 11.4166C23.1151 11.4295 23.1144 11.4423 23.1136 11.4553C23.0581 12.4418 22.2381 13.2109 21.2558 13.2109ZM22.1939 7.90183H14.0827C13.773 6.34134 13.2074 5.15672 12.3759 4.32022C12.3066 4.25046 12.2356 4.18201 12.1627 4.11504H22.2079C23.4776 4.11504 24.3959 5.36997 23.9718 6.57379C23.9669 6.58754 23.962 6.60137 23.9572 6.61528C23.6924 7.37657 22.9958 7.90183 22.1939 7.90183ZM62.804 54.0373C62.6808 54.9795 61.8824 55.6838 60.9377 55.6838H50.6062C51.4991 55.2867 52.3791 54.8452 53.2454 54.3594L53.2671 54.3472L53.2885 54.3346C54.4691 53.638 55.6723 52.8163 56.8857 51.897H60.9376C62.0747 51.897 62.9522 52.9033 62.804 54.0373ZM62.1616 50.3747H58.7936C59.6273 49.6744 60.4636 48.9291 61.2993 48.1411C62.1691 47.3206 63.5844 48.0673 63.429 49.2565C63.3453 49.8964 62.8031 50.3747 62.1616 50.3747ZM713.568 29.8553C717.272 28.2979 719.923 26.4928 721.529 24.4332C723.131 22.3771 723.93 19.8221 723.93 16.7615C723.93 13.5959 722.966 10.8305 721.029 8.46555C719.097 6.10399 716.33 4.36676 712.741 3.25384C712.741 3.25384 710.042 2.51695 707.184 2.17643C704.325 1.83591 700.469 1.83553 700.469 1.83553H654.711C654.161 1.83553 653.716 2.28364 653.716 2.83648C653.716 3.38933 654.161 3.83745 654.711 3.83745H656.367C660.402 3.83745 663.111 4.53301 664.49 5.92422C665.374 6.81315 665.819 8.56399 665.819 11.1767V46.6983C665.819 50.7563 665.195 53.3282 663.954 54.414C662.709 55.4964 660.179 56.0393 656.367 56.0393H654.669C654.142 56.0393 653.716 56.4685 653.716 56.9979C653.716 57.5272 654.142 57.9564 654.669 57.9564H701.549C706.41 57.9564 710.171 57.6917 712.822 57.1657C715.477 56.6364 717.713 55.761 719.538 54.5362C723.461 51.9235 725.425 48.3677 725.425 43.8651C725.425 37.0248 721.471 32.356 713.568 29.8553ZM714.424 36.8994C714.432 36.9121 714.439 36.9249 714.447 36.9377C715.167 38.1887 714.267 39.7551 712.829 39.7551H705.864C705.642 38.3813 705.282 37.1164 704.778 35.9683H712.807C713.47 35.9683 714.09 36.3234 714.424 36.8994ZM702.318 30.6592C704.321 30.6592 706.518 30.8561 708.415 31.9283C709.659 32.6319 709.358 34.446 707.93 34.446H703.988C703.124 33.0241 702 31.8165 700.618 30.8306L700.572 30.7974L700.523 30.7667C700.461 30.7266 700.407 30.6976 700.346 30.6592H702.318ZM699.813 29.1368C700.115 28.9484 700.415 28.7506 700.706 28.5386C701.899 27.696 702.88 26.6284 703.656 25.35H707.575C708.967 25.35 709.311 27.1719 708.078 27.8222C706.41 28.702 704.213 29.1368 702.707 29.1368H699.813ZM711.981 23.8277H704.439C704.925 22.6964 705.283 21.4337 705.508 20.0409H712C713.361 20.0409 714.259 21.4631 713.688 22.7046C713.681 22.7189 713.674 22.7331 713.668 22.7472C713.362 23.4078 712.705 23.8277 711.981 23.8277ZM713.083 18.4876L705.699 18.5029C705.765 17.7585 705.802 16.9853 705.802 16.1765C705.802 15.676 705.783 15.192 705.755 14.7159L713.075 14.7008C714.093 14.6987 714.925 15.5207 714.938 16.5448C714.938 16.5607 714.938 16.5766 714.938 16.5925C714.95 17.6334 714.118 18.4855 713.083 18.4876ZM713.525 10.4902C713.532 10.5044 713.538 10.5187 713.545 10.5331C714.13 11.7754 713.231 13.2094 711.864 13.2094H705.619C705.441 11.8284 705.125 10.5681 704.684 9.42263H711.844C712.563 9.42263 713.216 9.83703 713.525 10.4902ZM700.86 4.11356C701.675 4.12459 703.004 4.16414 704.535 4.4352C705.816 4.66214 706.975 4.85287 708.261 5.45839C709.793 6.18029 709.063 7.90028 707.706 7.90028H703.983C703.169 6.40419 702.088 5.15501 700.732 4.16911C700.707 4.15047 700.682 4.13197 700.657 4.11356H700.86ZM685.3 5.154C685.3 4.42681 685.886 3.83737 686.609 3.83737H688.7C691.517 3.83737 693.783 4.03417 695.497 4.42099C697.207 4.81123 698.509 5.34045 699.393 6.00556C702.156 8.00749 703.539 11.4005 703.539 16.1779C703.539 21.2369 702.156 24.7419 699.393 26.6861C698.176 27.575 696.82 28.2171 695.909 28.4117C694.999 28.6061 694.058 28.726 692.927 28.7695C691.795 28.8128 689.776 28.8543 689.776 28.8543H686.609C685.886 28.8543 685.3 28.2648 685.3 27.5377V5.154ZM674.96 55.5904L665.894 55.6789C666.69 54.786 667.254 53.5332 667.612 51.8955H674.942C675.957 51.8955 676.779 52.7227 676.779 53.743C676.779 54.7564 675.968 55.5806 674.96 55.5904ZM674.897 50.3733H667.868C668.006 49.285 668.082 48.0742 668.082 46.6969V46.5865H674.897C675.936 46.5865 676.779 47.4341 676.779 48.4799C676.779 49.5256 675.936 50.3733 674.897 50.3733ZM674.897 45.0641H668.082V41.2774H674.897C675.936 41.2774 676.779 42.1251 676.779 43.1707C676.779 44.2164 675.936 45.0641 674.897 45.0641ZM674.897 39.755H668.082V35.9682H674.897C675.936 35.9682 676.779 36.8159 676.779 37.8616C676.779 38.9073 675.936 39.755 674.897 39.755ZM674.897 34.4459H668.082V30.6591H674.897C675.936 30.6591 676.779 31.5068 676.779 32.5525C676.779 33.5982 675.936 34.4459 674.897 34.4459ZM674.897 29.1368H668.082V25.35H674.897C675.936 25.35 676.779 26.1977 676.779 27.2434C676.779 28.2891 675.936 29.1368 674.897 29.1368ZM674.897 23.8276H668.082V20.0408H674.897C675.936 20.0408 676.779 20.8885 676.779 21.9342C676.779 22.9799 675.936 23.8276 674.897 23.8276ZM674.901 18.4836L668.082 18.4977V14.7109L674.893 14.6968C675.934 14.6946 676.779 15.5429 676.779 16.5902C676.779 17.6344 675.939 18.4814 674.901 18.4836ZM674.897 13.2094H668.082V11.1752C668.082 10.5499 668.05 9.97385 668.002 9.42271H674.897C675.936 9.42271 676.779 10.2704 676.779 11.3161C676.779 12.3618 675.936 13.2094 674.897 13.2094ZM674.897 7.90028H667.8C667.49 6.338 666.924 5.15237 666.092 4.31533C666.024 4.2468 665.954 4.17952 665.882 4.11356H674.897C675.936 4.11356 676.779 4.96125 676.779 6.00696C676.779 7.05268 675.936 7.90028 674.897 7.90028ZM699.309 54.122C697.983 55.011 696.863 55.5369 695.952 55.7031C695.042 55.8728 694.212 55.9677 693.466 55.9949C692.721 56.0255 691.878 56.0391 690.936 56.0391H686.609C685.886 56.0391 685.3 55.4496 685.3 54.7225V32.1727C685.3 31.4455 685.886 30.8561 686.609 30.8561H688.7C688.7 30.8561 691.27 30.8538 693.092 30.9375C694.914 31.0212 695.74 31.1868 696.414 31.3374C697.279 31.5307 698.094 31.9112 699.309 32.6883C702.348 34.8565 703.87 38.3614 703.87 43.1965C703.87 48.6457 702.348 52.2864 699.309 54.122ZM708.41 54.9313C706.637 55.4273 704.771 55.6788 701.549 55.6788H701.077C702.44 54.7207 703.526 53.4538 704.34 51.8955H709.436C710.782 51.8955 711.198 53.7355 709.983 54.3178C709.43 54.5825 708.886 54.7974 708.41 54.9313ZM713.286 50.3732H705.012C705.433 49.2356 705.736 47.9737 705.919 46.5864H713.302C714.663 46.5864 715.563 48.0053 715.001 49.2523C714.995 49.2645 714.99 49.2765 714.984 49.2886C714.682 49.9535 714.013 50.3732 713.286 50.3732ZM714.153 45.064H706.068C706.108 44.4604 706.132 43.84 706.132 43.1951C706.132 42.5352 706.104 41.8971 706.053 41.2773H714.152C715.164 41.2773 715.988 42.0926 716.011 43.1104C716.012 43.1259 716.012 43.1415 716.012 43.157C716.035 44.2046 715.194 45.064 714.153 45.064ZM140.911 8.39695C133.838 2.83912 124.443 0.0602097 112.727 0.0602097C102.834 0.0602097 94.7649 2.36747 88.5176 6.97864C80.5601 12.93 76.583 20.5168 76.583 29.7459C76.583 38.5847 80.2836 45.8933 87.6912 51.675C91.3376 54.6236 95.3586 56.7204 99.754 57.9725C104.146 59.2211 109.354 59.8488 115.379 59.8488C125.826 59.8488 133.976 57.8197 139.835 53.7617C143.65 51.0914 146.565 47.7289 148.582 43.6709C150.599 39.6128 151.608 35.2494 151.608 30.5772C151.608 21.4058 148.042 14.0124 140.911 8.39695ZM140.532 29.1917H131.563C131.551 27.8943 131.511 26.6306 131.438 25.4049H140.529C141.512 25.4049 142.328 26.17 142.393 27.1568C142.394 27.1694 142.395 27.182 142.396 27.1947C142.466 28.2744 141.607 29.1917 140.532 29.1917ZM141.618 21.5834C141.62 21.5959 141.623 21.6084 141.626 21.621C141.88 22.7829 140.981 23.8826 139.798 23.8826H131.331C131.223 22.5759 131.078 21.3146 130.898 20.0958H139.79C140.672 20.0958 141.427 20.7171 141.618 21.5834ZM138.06 18.5735H130.649C130.414 17.2549 130.134 15.9923 129.808 14.7867H138.043C138.759 14.7867 139.427 15.1909 139.725 15.8459C139.731 15.8583 139.737 15.8706 139.742 15.883C140.312 17.1403 139.434 18.5735 138.06 18.5735ZM134.688 13.2643H129.364C128.942 11.9259 128.464 10.6599 127.923 9.47763H134.657C135.197 9.47763 135.712 9.70845 136.064 10.1209C136.075 10.1333 136.085 10.1458 136.096 10.1582C137.134 11.3796 136.286 13.2643 134.688 13.2643ZM123.665 3.31001C123.674 3.31832 123.682 3.32835 123.69 3.33674C125.968 3.71486 128.064 4.39356 129.983 5.36912C131.263 6.02009 130.826 7.95537 129.391 7.95537H127.146C126.119 6.11293 124.97 4.56402 123.69 3.33674C123.681 3.33518 123.672 3.33246 123.662 3.33075L123.665 3.31001ZM97.1712 7.48176C97.1543 7.50056 97.1375 7.51936 97.1209 7.53808C96.8833 7.80573 96.5402 7.95226 96.1835 7.95241L91.0887 7.95537C92.5539 6.99014 94.089 6.14712 95.7278 5.42817C96.9885 4.87501 98.0926 6.45446 97.1712 7.48176ZM89.0096 9.4777H92.4184C93.8242 9.4777 94.7007 10.9717 94.0625 12.2317C94.056 12.2447 94.0494 12.2577 94.0428 12.2707C93.7312 12.8884 93.0868 13.2644 92.3981 13.2644H84.9741C86.1455 11.9386 87.496 10.6795 89.0096 9.4777ZM83.7354 14.7869H90.4313C91.6315 14.7869 92.4638 15.956 92.1125 17.1103C92.096 17.1646 92.0796 17.2188 92.0634 17.2733C91.8349 18.0377 91.1533 18.5736 90.3596 18.5736H81.3694C82.0273 17.259 82.8156 15.9975 83.7354 14.7869ZM80.677 20.0959H89.1084C90.2585 20.0959 91.1219 21.1291 90.9439 22.2719C90.9419 22.2846 90.94 22.2974 90.938 22.3101C90.7977 23.2169 90.0146 23.8828 89.1022 23.8828H79.4775C79.7715 22.5749 80.1742 21.3145 80.677 20.0959ZM79.1866 25.4051H88.5855C89.6493 25.4051 90.4917 26.2961 90.4434 27.365C90.4428 27.3777 90.4422 27.3904 90.4417 27.4029C90.3972 28.4027 89.5786 29.1918 88.5837 29.1918H78.8606C78.8849 27.8908 78.9911 26.628 79.1866 25.4051ZM78.8709 30.7142H88.5579C89.567 30.7142 90.3906 31.5236 90.415 32.5384C90.4154 32.5551 90.4158 32.5719 90.4163 32.5886C90.4418 33.6374 89.602 34.501 88.5591 34.501H79.2635C79.0435 33.2793 78.9143 32.0168 78.8709 30.7142ZM79.5906 36.0233H88.945C89.873 36.0233 90.6633 36.7124 90.7868 37.6376C90.7885 37.6503 90.7902 37.663 90.7919 37.6757C90.9436 38.8054 90.0837 39.8101 88.9503 39.8101H80.8862C80.3447 38.594 79.9152 37.3316 79.5906 36.0233ZM81.6382 41.3325H90.007C90.8307 41.3325 91.5718 41.8724 91.7919 42.6708C91.7955 42.6836 91.7991 42.6964 91.8026 42.7092C92.1374 43.9179 91.2657 45.1192 90.0183 45.1192H84.1758C83.1925 43.9101 82.3469 42.6489 81.6382 41.3325ZM89.1088 49.9014L89.0936 49.8891L89.0783 49.877C87.7553 48.8445 86.5658 47.7661 85.5028 46.6415H92.0061C92.7008 46.6415 93.3509 47.0236 93.6585 47.6501C93.6649 47.6633 93.6714 47.6763 93.6778 47.6894C94.2993 48.9496 93.4247 50.4283 92.0261 50.4283H89.794C89.5653 50.2531 89.3339 50.0834 89.1088 49.9014ZM95.5348 53.956C94.3021 53.3689 93.1047 52.6995 91.9456 51.9506H95.9144C96.2005 51.9506 96.4739 52.0675 96.6639 52.2826C96.6769 52.2973 96.69 52.312 96.7033 52.3269C97.4435 53.1554 96.5355 54.4327 95.5348 53.956ZM114.549 57.8472H114.138C109.493 57.8472 105.876 55.5127 103.276 50.8405C100.678 46.1717 99.3796 39.5587 99.3796 30.9947V29.9308C99.3796 21.4244 100.678 14.6146 103.276 9.50133C105.93 4.49658 109.493 1.97125 113.972 1.97125C114.252 1.97125 114.475 1.97497 114.714 1.97746C119.194 1.97746 122.756 4.47809 125.411 9.48284C128.008 14.5961 129.307 21.4059 129.307 29.9123V30.9947C129.307 39.5587 128.008 46.1717 125.411 50.8405C122.81 55.5126 119.194 57.8472 114.549 57.8472ZM123.205 57.1433L123.203 57.1256C124.795 55.8222 126.192 54.0962 127.386 51.952V51.9507H129.789C131.471 51.9507 131.972 54.2202 130.465 54.9725C128.301 56.0526 125.882 56.7765 123.205 57.1433ZM135.541 50.4283H128.154C128.698 49.2596 129.182 48.0002 129.596 46.6415H135.571C137.16 46.6415 138.005 48.4997 136.996 49.7352C136.986 49.7471 136.977 49.759 136.967 49.7709C136.618 50.1957 136.088 50.4283 135.541 50.4283ZM138.624 45.1192H130.02C130.328 43.9218 130.591 42.66 130.808 41.3324H138.639C139.951 41.3324 140.863 42.6667 140.378 43.8932C140.373 43.9056 140.368 43.9179 140.363 43.9303C140.078 44.647 139.392 45.1192 138.624 45.1192ZM140.092 39.8101H131.031C131.191 38.5967 131.317 37.3355 131.406 36.0233H140.098C141.247 36.0233 142.135 37.0651 141.941 38.2047C141.939 38.2172 141.937 38.2298 141.935 38.2423C141.78 39.1473 141.005 39.8101 140.092 39.8101ZM140.598 34.5009H131.491C131.542 33.3655 131.57 32.1986 131.57 30.9947V30.7142H140.599C141.644 30.7142 142.485 31.5801 142.457 32.6305C142.456 32.6487 142.456 32.6669 142.455 32.6851C142.428 33.6962 141.603 34.5009 140.598 34.5009ZM799.409 8.39711C792.335 2.83928 782.94 0.0603638 771.225 0.0603638C761.331 0.0603638 753.262 2.36762 747.015 6.97879C739.057 12.9301 735.08 20.5169 735.08 29.746C735.08 38.5849 738.781 45.8935 746.189 51.6751C749.835 54.6237 753.856 56.7206 758.251 57.9726C762.643 59.2213 767.852 59.8489 773.876 59.8489C784.323 59.8489 792.473 57.8199 798.333 53.7619C802.148 51.0916 805.062 47.7291 807.079 43.671C809.097 39.613 810.105 35.2495 810.105 30.5773C810.105 21.4059 806.54 14.0126 799.409 8.39711ZM799.029 29.1919H790.06C790.049 27.8944 790.008 26.6308 789.936 25.4051H799.027C800.01 25.4051 800.826 26.1702 800.891 27.157C800.892 27.1696 800.892 27.1821 800.893 27.1948C800.963 28.2746 800.105 29.1919 799.029 29.1919ZM800.115 21.5835C800.118 21.596 800.12 21.6086 800.123 21.6211C800.377 22.7831 799.478 23.8828 798.295 23.8828H789.828C789.721 22.576 789.575 21.3147 789.395 20.096H798.287C799.169 20.096 799.924 20.7173 800.115 21.5835ZM796.557 18.5736H789.147C788.911 17.2551 788.631 15.9925 788.305 14.7869H796.54C797.256 14.7869 797.925 15.1911 798.223 15.8461C798.228 15.8584 798.234 15.8708 798.24 15.8831C798.809 17.1404 797.931 18.5736 796.557 18.5736ZM793.186 13.2645H787.861C787.44 11.926 786.961 10.6601 786.42 9.47779H793.154C793.694 9.47779 794.209 9.70861 794.561 10.1211C794.572 10.1334 794.583 10.1459 794.593 10.1584C795.631 11.3798 794.783 13.2645 793.186 13.2645ZM782.162 3.31016C782.171 3.31847 782.179 3.3285 782.188 3.33689C784.465 3.71501 786.562 4.39372 788.48 5.36928C789.761 6.02025 789.323 7.95552 787.888 7.95552H785.643C784.616 6.11309 783.467 4.56417 782.188 3.33689C782.178 3.33534 782.169 3.33261 782.159 3.33091L782.162 3.31016ZM755.669 7.48192C755.652 7.50072 755.635 7.51951 755.618 7.53824C755.381 7.80588 755.038 7.95241 754.681 7.95257L749.586 7.95552C751.051 6.99029 752.586 6.14727 754.225 5.42832C755.486 4.87517 756.59 6.45461 755.669 7.48192ZM747.507 9.47787H750.916C752.322 9.47787 753.198 10.9719 752.56 12.2318C752.553 12.2448 752.547 12.2579 752.54 12.2708C752.229 12.8886 751.584 13.2646 750.896 13.2646H743.471C744.643 11.9387 745.993 10.6797 747.507 9.47787ZM742.233 14.787H748.929C750.129 14.787 750.961 15.9562 750.61 17.1105C750.593 17.1647 750.577 17.2189 750.561 17.2734C750.332 18.0379 749.651 18.5737 748.857 18.5737H739.867C740.525 17.2591 741.313 15.9977 742.233 14.787ZM739.174 20.0961H747.606C748.756 20.0961 749.619 21.1293 749.441 22.2721C749.439 22.2848 749.437 22.2975 749.435 22.3102C749.295 23.2171 748.512 23.8829 747.6 23.8829H737.975C738.269 22.575 738.672 21.3146 739.174 20.0961ZM737.684 25.4052H747.083C748.147 25.4052 748.989 26.2962 748.941 27.3652C748.94 27.3778 748.94 27.3905 748.939 27.4031C748.895 28.4029 748.076 29.1919 747.081 29.1919H737.358C737.382 27.8909 737.488 26.6281 737.684 25.4052ZM737.368 30.7143H747.055C748.064 30.7143 748.888 31.5237 748.912 32.5385C748.913 32.5552 748.913 32.572 748.914 32.5888C748.939 33.6375 748.099 34.5011 747.056 34.5011H737.761C737.541 33.2795 737.412 32.0169 737.368 30.7143ZM738.088 36.0235H747.442C748.37 36.0235 749.161 36.7126 749.284 37.6378C749.286 37.6504 749.288 37.6632 749.289 37.6758C749.441 38.8056 748.581 39.8102 747.448 39.8102H739.384C738.842 38.5942 738.413 37.3317 738.088 36.0235ZM740.136 41.3326H748.504C749.328 41.3326 750.069 41.8726 750.289 42.6709C750.293 42.6838 750.296 42.6966 750.3 42.7094C750.635 43.9181 749.763 45.1193 748.516 45.1193H742.673C741.69 43.9103 740.844 42.649 740.136 41.3326ZM747.606 49.9015L747.591 49.8892L747.576 49.8772C746.253 48.8446 745.063 47.7663 744 46.6417H750.503C751.198 46.6417 751.848 47.0238 752.156 47.6503C752.162 47.6634 752.169 47.6765 752.175 47.6895C752.797 48.9497 751.922 50.4285 750.523 50.4285H748.291C748.063 50.2532 747.831 50.0836 747.606 49.9015ZM754.032 53.9562C752.799 53.369 751.602 52.6996 750.443 51.9508H754.412C754.698 51.9508 754.971 52.0677 755.161 52.2827C755.174 52.2974 755.187 52.3122 755.201 52.327C755.941 53.1555 755.033 54.4329 754.032 53.9562ZM773.046 57.8473H772.635C767.99 57.8473 764.374 55.5129 761.773 50.8406C759.176 46.1718 757.877 39.5588 757.877 30.9948V29.9309C757.877 21.4246 759.176 14.6148 761.773 9.50148C764.428 4.49673 767.99 1.9714 772.47 1.9714C772.749 1.9714 772.972 1.97513 773.212 1.97762C777.691 1.97762 781.254 4.47824 783.908 9.48299C786.506 14.5963 787.805 21.4061 787.805 29.9124V30.9948C787.805 39.5588 786.506 46.1718 783.908 50.8406C781.308 55.5128 777.692 57.8473 773.046 57.8473ZM781.702 57.1434L781.7 57.1257C783.293 55.8223 784.689 54.0963 785.883 51.9522L785.884 51.9508H788.286C789.969 51.9508 790.469 54.2203 788.962 54.9726C786.799 56.0528 784.379 56.7767 781.702 57.1434ZM794.038 50.4285H786.652C787.196 49.2598 787.679 48.0004 788.094 46.6417H794.068C795.657 46.6417 796.502 48.4999 795.493 49.7353C795.484 49.7472 795.474 49.7591 795.464 49.7711C795.116 50.1958 794.586 50.4285 794.038 50.4285ZM797.122 45.1193H788.517C788.825 43.922 789.088 42.6601 789.305 41.3326H797.136C798.448 41.3326 799.361 42.6669 798.875 43.8934C798.871 43.9057 798.866 43.9181 798.861 43.9304C798.576 44.6471 797.889 45.1193 797.122 45.1193ZM798.589 39.8102H789.528C789.689 38.5968 789.815 37.3357 789.903 36.0234H798.595C799.745 36.0234 800.633 37.0652 800.439 38.2048C800.437 38.2174 800.435 38.2299 800.432 38.2425C800.277 39.1474 799.502 39.8102 798.589 39.8102ZM799.095 34.5011H789.988C790.039 33.3656 790.067 32.1987 790.067 30.9948V30.7143H799.097C800.141 30.7143 800.982 31.5803 800.954 32.6307C800.954 32.6489 800.953 32.667 800.953 32.6852C800.925 33.6963 800.101 34.5011 799.095 34.5011ZM863.426 2.83672C863.426 3.38646 863.862 3.82114 864.408 3.84996C871.931 4.24665 875.695 9.29715 875.695 19.0016V31.1542C875.695 31.7309 875.01 32.0288 874.592 31.6341L843.85 2.59634C843.324 2.09936 842.63 1.8227 841.908 1.8227H812.288C811.732 1.8227 811.282 2.27548 811.282 2.83399C811.282 3.37317 811.698 3.81904 812.234 3.84305C812.708 3.86426 813.29 3.90846 813.81 3.99935C815.119 4.22846 816.579 4.5783 818.019 5.49226C819.459 6.40621 820.841 7.35233 822.141 8.57821C822.591 9.00279 822.958 9.3534 823.245 9.63037C823.759 10.1263 824.047 10.8103 824.047 11.527V40.8492C824.047 50.6028 819.912 55.6553 811.646 56.0066C811.123 56.0288 810.702 56.4466 810.702 56.9733C810.702 57.5091 811.134 57.9433 811.666 57.9433H837.839C838.372 57.9433 838.805 57.5086 838.805 56.9723C838.805 56.4459 838.386 56.0294 837.863 56.0031C830.311 55.6227 826.536 50.5714 826.536 40.8492V14.0233C826.536 13.446 827.222 13.1483 827.64 13.5444L875.982 59.4215C876.224 59.6511 876.544 59.779 876.877 59.779C877.597 59.779 878.181 59.1919 878.181 58.4677V19.0016C878.181 11.7202 880.586 7.02416 885.393 4.91028C886.366 4.4888 887.051 4.22233 888.167 4.04823C888.94 3.9275 889.876 3.87187 890.564 3.84631C891.104 3.82619 891.529 3.379 891.529 2.83501C891.529 2.27587 891.078 1.82263 890.522 1.82263H864.434C863.877 1.82263 863.426 2.27673 863.426 2.83672ZM824.088 55.6674H820.293C821.231 55.0087 822.131 54.1595 822.91 53.1638C823.536 52.3632 824.786 52.4426 825.317 53.3101C825.326 53.3249 825.335 53.3396 825.345 53.3543C825.968 54.3634 825.269 55.6674 824.088 55.6674ZM825.033 7.95559C824.453 7.40811 824.002 6.98252 823.934 6.91819C822.736 5.78779 821.494 4.88853 820.295 4.09865L832.417 4.15055C832.891 4.15257 833.347 4.3335 833.695 4.65763C834.956 5.83363 834.129 7.95559 832.409 7.95559H825.033ZM828.088 10.8416C828.088 10.8416 827.433 10.2228 826.644 9.47787H838.128C838.602 9.47787 839.059 9.65811 839.407 9.98255C840.663 11.1529 839.839 13.2646 838.128 13.2646H830.641L828.088 10.8416ZM832.246 14.787H843.823C844.298 14.787 844.755 14.9672 845.103 15.2917C846.358 16.462 845.535 18.5738 843.823 18.5738H836.236L832.246 14.787ZM837.84 20.0961H849.518C849.993 20.0961 850.45 20.2763 850.798 20.6007C852.054 21.7711 851.23 23.8829 849.518 23.8829H841.831L837.84 20.0961ZM843.435 25.4052H855.214C855.689 25.4052 856.146 25.5854 856.494 25.9099C857.749 27.0802 856.926 29.192 855.214 29.192H847.425L843.435 25.4052ZM849.029 30.7143H860.909C861.384 30.7143 861.841 30.8946 862.189 31.219C863.444 32.3894 862.621 34.5011 860.909 34.5011H853.019L849.029 30.7143ZM854.624 36.0235H866.605C867.079 36.0235 867.536 36.2037 867.884 36.5282C869.14 37.6985 868.316 39.8103 866.605 39.8103H858.614L854.624 36.0235ZM873.762 54.1859L871.407 51.9508H874.645C875.358 51.9508 875.935 52.5338 875.931 53.2508C875.926 54.3826 874.581 54.9627 873.762 54.1859ZM874.071 50.4284H869.803L865.812 46.6416H874.071C875.114 46.6416 875.958 47.4947 875.953 48.5439C875.949 49.5861 875.107 50.4284 874.071 50.4284ZM872.118 45.1193H864.208L860.218 41.3325H872.118C872.699 41.3325 873.247 41.6019 873.604 42.0627C874.566 43.3063 873.685 45.1193 872.118 45.1193ZM874.684 6.53557C873.953 5.5538 873.129 4.75078 872.242 4.09856H875.885C876.965 4.09856 877.604 5.27822 877.055 6.21354C877.032 6.25394 877.008 6.29441 876.985 6.33497C876.49 7.20479 875.282 7.33796 874.684 6.53557ZM337.294 37.4176C336.964 37.4323 336.658 37.5951 336.456 37.8584C332.886 42.5179 328.876 46.5184 324.421 49.8661C321.766 51.9222 320.32 52.8361 317.87 53.9513C314.438 55.5139 311.988 56.038 309.083 56.038H301.854C301.131 56.038 300.545 55.4485 300.545 54.7214V32.1727C300.545 31.4455 301.131 30.8561 301.854 30.8561H302.7C305.52 30.8561 308.172 31.6059 310.658 33.1057C311.265 33.4382 312.17 34.0457 313.231 34.9323C314.529 36.0162 315.675 37.2221 316.738 38.6591C317.16 39.2288 317.454 39.7129 317.647 40.0661C317.861 40.4585 318.271 40.6959 318.716 40.6959C319.395 40.6959 319.945 40.1428 319.945 39.4605V20.3012C319.945 19.5905 319.372 19.0144 318.665 19.0144C318.223 19.0144 317.814 19.2524 317.58 19.6295C315.535 22.9181 313.38 25.2575 311.113 26.6419C308.712 28.1179 305.905 28.8541 302.7 28.8541H301.854C301.131 28.8541 300.545 28.2646 300.545 27.5375V5.15299C300.545 4.4258 301.131 3.83636 301.854 3.83636H309.248C312.287 3.83636 314.733 4.18581 316.585 4.87796C318.437 5.57352 320.579 6.87989 323.011 8.7969C325.443 10.7174 327.804 12.8584 330.098 15.22C332.251 17.4362 334.148 19.6403 335.79 21.8326C335.994 22.1058 336.309 22.2639 336.649 22.2639C337.293 22.2639 337.796 21.7059 337.734 21.0615L335.991 3.02139C335.926 2.34805 335.364 1.83451 334.691 1.83451H269.956C269.407 1.83451 268.961 2.28263 268.961 2.83548C268.961 3.38832 269.407 3.83643 269.956 3.83643H271.623C275.658 3.83643 278.367 4.53201 279.746 5.92314C280.63 6.81215 281.075 8.5629 281.075 11.1756V46.6972C281.075 50.7553 280.451 53.3271 279.21 54.4129C277.965 55.4953 275.435 56.0382 271.623 56.0382H269.914C269.388 56.0382 268.961 56.4674 268.961 56.9968C268.961 57.5261 269.388 57.9553 269.914 57.9553H335.421C336.102 57.9553 336.672 57.4347 336.737 56.7525L338.47 38.6638C338.536 37.9751 337.981 37.3868 337.294 37.4176ZM312.436 28.5058C313.062 28.1233 313.681 27.6864 314.293 27.1957C315.02 26.6123 316.091 27.099 316.091 28.0347C316.091 28.6416 315.602 29.1336 314.998 29.1336H311.295C311.68 28.9325 312.066 28.7332 312.436 28.5058ZM316.145 31.8409C316.145 32.8214 315.029 33.3722 314.252 32.7802C313.332 32.0798 312.488 31.5213 311.91 31.2009C311.586 31.0066 311.257 30.831 310.928 30.6559H314.967C315.618 30.6559 316.145 31.1865 316.145 31.8409ZM329.76 11.6334C328.891 10.8198 328.049 10.092 327.284 9.41944H330.6C331.223 9.41944 331.75 9.8852 331.831 10.5067C331.833 10.5248 331.836 10.543 331.838 10.5611C331.99 11.7212 330.612 12.4301 329.76 11.6334ZM331.207 5.73209C331.209 5.74801 331.211 5.76402 331.213 5.78018C331.359 6.89931 330.494 7.89709 329.372 7.89709H325.496C325.133 7.59829 324.771 7.29336 324.407 7.00529C322.907 5.82338 321.517 4.86328 320.213 4.1103H329.365C330.298 4.1103 331.085 4.80229 331.207 5.73209ZM290.141 55.6791H281.15C281.947 54.7856 282.511 53.5315 282.869 51.8923H290.142C291.181 51.8923 292.024 52.7399 292.024 53.7857C292.024 54.8314 291.181 55.6791 290.141 55.6791ZM290.141 50.3699H283.124C283.262 49.2826 283.338 48.0728 283.338 46.6969V46.5831H290.141C291.181 46.5831 292.024 47.4308 292.024 48.4765C292.024 49.5222 291.181 50.3699 290.141 50.3699ZM290.141 45.0608H283.338V41.274H290.141C291.181 41.274 292.024 42.1217 292.024 43.1674C292.024 44.2131 291.181 45.0608 290.141 45.0608ZM290.141 39.7516H283.338V35.9648H290.141C291.181 35.9648 292.024 36.8125 292.024 37.8582C292.024 38.904 291.181 39.7516 290.141 39.7516ZM290.141 34.4425H283.338V30.6557H290.141C291.181 30.6557 292.024 31.5034 292.024 32.5491C292.024 33.5948 291.181 34.4425 290.141 34.4425ZM290.141 29.1334H283.338V25.3466H290.141C291.181 25.3466 292.024 26.1942 292.024 27.24C292.024 28.2857 291.181 29.1334 290.141 29.1334ZM290.141 23.8242H283.338V20.0374H290.141C291.181 20.0374 292.024 20.8851 292.024 21.9308C292.024 22.9765 291.181 23.8242 290.141 23.8242ZM290.141 18.5151H283.338V14.7283H290.141C291.181 14.7283 292.024 15.576 292.024 16.6217C292.024 17.6674 291.181 18.5151 290.141 18.5151ZM290.141 13.2059H283.338V11.175C283.338 10.5485 283.306 9.97135 283.258 9.41913H290.141C291.181 9.41913 292.024 10.2668 292.024 11.3125C292.024 12.3582 291.181 13.2059 290.141 13.2059ZM290.141 7.89678H283.055C282.745 6.33629 282.18 5.15166 281.348 4.31524C281.279 4.24548 281.208 4.17703 281.135 4.11006H290.141C291.181 4.11006 292.024 4.95775 292.024 6.00346C292.024 7.04918 291.181 7.89678 290.141 7.89678ZM331.742 54.0323C331.619 54.9744 330.821 55.6787 329.876 55.6787H319.548C320.439 55.2824 321.151 54.9481 322.46 54.1917C323.376 53.6621 324.53 52.8665 325.796 51.892H329.876C331.013 51.892 331.891 52.8983 331.742 54.0323ZM331.093 50.3696H327.685C328.518 49.6708 329.372 48.9183 330.218 48.131C331.103 47.3075 332.526 48.0418 332.368 49.244C332.284 49.8881 331.738 50.3696 331.093 50.3696ZM489.413 39.0382C488.965 38.8009 488.416 38.9868 488.187 39.4413C485.424 44.9348 481.857 49.2436 477.489 52.3647C472.901 55.6457 467.956 57.2845 462.65 57.2845C457.397 57.2845 453.697 54.6176 451.541 49.2804C450.988 47.8926 450.506 46.4336 450.091 44.9034C449.676 43.3731 449.356 41.887 449.136 40.4415C448.64 37.2724 448.391 33.798 448.391 30.0182C448.391 25.5156 448.694 21.6103 449.302 18.302C449.909 14.9972 450.823 12.1199 452.037 9.67022C454.47 4.8928 457.812 2.5007 462.069 2.5007C463.726 2.5007 465.288 2.70767 466.752 3.12503C468.216 3.5423 469.612 4.05809 470.941 4.66882C473.923 6.22621 476.493 8.25524 478.649 10.7559C480.309 12.5915 482.049 15.0379 483.871 18.095C484.701 19.5404 485.46 20.9859 486.151 22.4313C486.581 23.3306 486.91 24.0146 487.136 24.483C487.31 24.8422 487.709 25.0297 488.095 24.9331C488.483 24.8357 488.749 24.4765 488.73 24.0745L487.734 2.38441C487.707 1.79629 487.225 1.33341 486.64 1.33341C486.355 1.33341 486.081 1.4522 485.877 1.65241C483.371 4.10696 480.742 5.33719 477.988 5.33719C477.275 5.32778 476.167 5.23301 475.248 4.87734C474.349 4.52983 472.597 3.66785 472.597 3.66785C469.723 2.38867 467.345 1.49966 465.47 1.00089C463.034 0.332438 460.605 0 458.173 0C448.775 0 441.094 2.77884 435.127 8.33667C429.156 13.8978 426.174 20.9859 426.174 29.6007C426.174 38.2733 429.349 45.4733 435.707 51.1974C442.062 56.9248 449.936 59.7886 459.334 59.7886C466.903 59.7886 473.343 57.8681 478.649 54.034C479.809 53.1992 480.929 52.2696 482.005 51.2414C483.085 50.2134 484.655 48.4904 485.335 47.5967C486.254 46.3876 487.315 44.7045 488.045 43.4954C488.744 42.3399 489.358 41.1792 489.811 40.2297C490.021 39.7893 489.842 39.2658 489.413 39.0382ZM483.757 8.54325C483.858 10.1631 481.867 10.9795 480.801 9.76136C480.651 9.58998 480.498 9.4182 480.341 9.24425C479.844 8.66957 479.326 8.11626 478.786 7.58548C479.72 7.52029 480.64 7.34036 481.544 7.04661C482.596 6.70477 483.688 7.43313 483.757 8.54325ZM446.588 7.25824C446.566 7.28326 446.544 7.30836 446.523 7.33353C446.222 7.6857 445.786 7.89857 445.324 7.89857H439.251C440.954 6.66057 442.791 5.62239 444.759 4.789C446.291 4.14067 447.676 5.99585 446.588 7.25824ZM436.664 10.0067C436.884 9.80199 437.118 9.61748 437.343 9.42092H441.646C443.043 9.42092 443.899 10.919 443.241 12.1584C443.234 12.1717 443.227 12.185 443.219 12.1983C442.895 12.8106 442.278 13.2077 441.588 13.2077H433.725C434.596 12.0908 435.573 11.0234 436.664 10.0067ZM432.631 14.7301H439.465C440.712 14.7301 441.606 15.9439 441.243 17.1448C441.238 17.1605 441.233 17.176 441.229 17.1915C440.991 17.9798 440.269 18.5168 439.45 18.5168H430.57C431.14 17.1953 431.829 15.9351 432.631 14.7301ZM429.97 20.0392H438.183C439.352 20.0392 440.234 21.1108 440.012 22.265C440.009 22.2774 440.007 22.2899 440.004 22.3023C439.835 23.1864 439.071 23.826 438.176 23.826H428.955C429.203 22.5142 429.542 21.2528 429.97 20.0392ZM428.711 25.3483H437.509C438.577 25.3483 439.433 26.2467 439.368 27.319C439.368 27.3317 439.367 27.3444 439.366 27.357C439.307 28.3515 438.498 29.1351 437.507 29.1351H428.447C428.464 27.8312 428.549 26.5675 428.711 25.3483ZM428.461 30.6575H437.5C438.487 30.6575 439.286 31.4392 439.339 32.4298C439.34 32.4424 439.341 32.455 439.341 32.4677C439.399 33.5378 438.57 34.4443 437.505 34.4443H428.82C428.623 33.2226 428.503 31.961 428.461 30.6575ZM429.113 35.9666H438.134C439.028 35.9666 439.79 36.6035 439.961 37.487C439.964 37.4995 439.966 37.512 439.968 37.5245C440.193 38.6786 439.31 39.7534 438.141 39.7534H430.273C429.79 38.5377 429.404 37.2758 429.113 35.9666ZM430.94 41.2758H439.549C440.342 41.2758 441.047 41.7808 441.306 42.5352C441.311 42.5507 441.316 42.5663 441.322 42.5819C441.739 43.7958 440.841 45.0626 439.564 45.0626H433.197C432.322 43.8547 431.572 42.5924 430.94 41.2758ZM437.216 49.5017C436.179 48.5677 435.24 47.5946 434.389 46.5849H441.825C442.497 46.5849 443.104 46.9666 443.424 47.5616C443.444 47.599 443.464 47.6364 443.484 47.6737C444.143 48.8899 443.29 50.3717 441.913 50.3717H438.241C437.896 50.087 437.551 49.8033 437.216 49.5017ZM440.234 51.894H445.44C445.873 51.894 446.279 52.1054 446.537 52.4555C446.552 52.476 446.568 52.4965 446.583 52.5168C447.41 53.6325 446.209 55.1567 444.949 54.5821C443.297 53.8293 441.725 52.9326 440.234 51.894ZM235.237 2.84814V2.96118C235.237 3.46423 235.607 3.87459 236.099 3.96339C238.636 4.42083 240.726 5.58945 242.365 7.46443C244.19 9.5512 245.101 12.0382 245.101 14.9291C245.101 16.931 244.521 19.2382 243.36 21.8509L237.525 34.6168C237.204 35.319 236.218 35.3359 235.873 34.645L223.38 9.59184C222.719 8.25836 222.385 7.20309 222.385 6.42276C222.385 5.4218 222.76 4.74317 223.505 4.38012C224.251 4.02049 225.647 3.83722 227.691 3.83722H228.521C229.071 3.83722 229.516 3.38909 229.516 2.83625C229.516 2.2834 229.071 1.83529 228.521 1.83529H192.857C192.271 1.83529 191.797 2.31261 191.797 2.90151C191.797 3.43641 192.191 3.88818 192.718 3.95794C193.221 4.02445 193.721 4.09616 194.255 4.1998C195.112 4.36614 195.652 4.5212 196.273 4.75676C197.167 5.09619 198.163 5.75858 199.232 6.79179C200.482 8.00018 201.48 9.44159 202.288 10.9847C202.792 11.946 203.461 13.2483 204.231 14.929L195.242 34.6206C194.921 35.3222 193.937 35.3405 193.591 34.6512L181.019 9.59176C181.019 9.59176 180.506 8.55404 180.25 7.86633C180.034 7.28738 179.986 6.87732 180.024 6.42268C180.166 4.71185 181.792 3.83713 185.33 3.83713H186.241C186.79 3.83713 187.236 3.38902 187.236 2.83618C187.236 2.28333 186.79 1.83521 186.241 1.83521H147.694C147.145 1.83521 146.699 2.28333 146.699 2.83618C146.699 3.38902 147.145 3.83713 147.694 3.83713H148.356C151.23 3.83713 153.537 4.39356 155.278 5.50648C157.018 6.6194 158.58 8.50588 159.963 11.1763L184.517 59.4234C184.71 59.8015 185.096 60.0393 185.519 60.0393C185.959 60.0393 186.358 59.7812 186.541 59.3788L205.556 17.5959L226.78 59.3865C226.983 59.7871 227.393 60.0393 227.84 60.0393C228.306 60.0393 228.73 59.7653 228.923 59.3384L246.511 20.5139L249.162 15.3463C250.046 13.7347 250.876 12.4283 251.652 11.4274C253.362 9.14729 255.697 6.90398 257.133 6.00121C258.569 5.09845 259.737 4.51406 260.689 4.25457C261.436 4.05087 262.268 3.90978 263.368 3.85851C263.905 3.83349 264.335 3.39003 264.335 2.84853C264.335 2.28892 263.884 1.83529 263.328 1.83529H236.244C235.688 1.83529 235.237 2.28876 235.237 2.84814ZM156.971 4.11139H169.59C170.708 4.11139 171.574 5.09752 171.434 6.21292C171.432 6.22877 171.43 6.24462 171.428 6.26039C171.313 7.19656 170.522 7.89811 169.585 7.89811H160.492C159.435 6.27834 158.309 5.04143 156.971 4.11139ZM161.827 10.1999C161.687 9.92972 161.547 9.67473 161.406 9.42053H170.578C171.301 9.42053 171.955 9.84022 172.262 10.4979C172.269 10.5141 172.277 10.5303 172.284 10.5466C172.863 11.7843 171.96 13.2072 170.6 13.2072H163.355L161.827 10.1999ZM164.129 14.7296H173.177C173.888 14.7296 174.538 15.132 174.858 15.77C175.49 17.0294 174.58 18.5164 173.177 18.5164H166.056L164.129 14.7296ZM166.831 20.0387H175.841C176.551 20.0387 177.201 20.4411 177.521 21.0791C178.153 22.3384 177.243 23.8254 175.841 23.8254H168.759L166.831 20.0387ZM169.534 25.3479H178.504C179.215 25.3479 179.865 25.7502 180.185 26.3883C180.816 27.6476 179.906 29.1346 178.504 29.1346H171.461L169.534 25.3479ZM172.236 30.6569H181.168C181.878 30.6569 182.528 31.0593 182.848 31.6974C183.48 32.9567 182.57 34.4438 181.168 34.4438H174.163L172.236 30.6569ZM174.938 35.9661H183.831C184.542 35.9661 185.191 36.3684 185.512 37.0064C186.143 38.2658 185.233 39.7529 183.831 39.7529H176.866L174.938 35.9661ZM177.641 41.2752H186.495C187.205 41.2752 187.855 41.6776 188.175 42.3157C188.807 43.5749 187.897 45.0619 186.495 45.0619H179.568L177.641 41.2752ZM184.118 53.9994L183.046 51.8934H185.398C186.446 51.8934 187.142 52.984 186.706 53.9422C186.206 55.0413 184.665 55.0753 184.118 53.9994ZM187.122 50.3711H182.271L180.343 46.5843H187.122C188.493 46.5843 189.404 48.0117 188.834 49.2658C188.527 49.9392 187.859 50.3711 187.122 50.3711ZM199.274 4.11139H211.894C213.012 4.11139 213.877 5.09752 213.738 6.21292C213.736 6.22877 213.734 6.24462 213.732 6.26039C213.617 7.19656 212.826 7.89811 211.888 7.89811H202.796C201.739 6.27834 200.613 5.04143 199.274 4.11139ZM204.131 10.1999C203.991 9.92972 203.85 9.67473 203.71 9.42053H212.882C213.604 9.42053 214.259 9.84029 214.565 10.4979C214.573 10.5142 214.58 10.5304 214.588 10.5467C215.167 11.7844 214.264 13.2072 212.904 13.2072H205.658L204.131 10.1999ZM206.432 14.7296H215.481C216.191 14.7296 216.841 15.132 217.161 15.77C217.793 17.0294 216.883 18.5165 215.481 18.5165H208.36L206.432 14.7296ZM209.135 20.0387H218.144C218.855 20.0387 219.505 20.4411 219.825 21.0791C220.457 22.3384 219.547 23.8254 218.144 23.8254H211.062L209.135 20.0387ZM211.837 25.3479H220.808C221.518 25.3479 222.168 25.7502 222.488 26.3883C223.12 27.6476 222.21 29.1346 220.808 29.1346H213.765L211.837 25.3479ZM214.54 30.6569H223.471C224.182 30.6569 224.832 31.0593 225.152 31.6973C225.784 32.9567 224.874 34.4437 223.471 34.4437H216.467L214.54 30.6569ZM217.242 35.9661H226.135C226.845 35.9661 227.495 36.3684 227.815 37.0064C228.447 38.2658 227.537 39.7529 226.135 39.7529H219.17L217.242 35.9661ZM219.944 41.2752H228.798C229.509 41.2752 230.159 41.6776 230.479 42.3156C231.11 43.5749 230.2 45.0619 228.798 45.0619H221.872L219.944 41.2752ZM226.421 53.9995L225.349 51.8934H227.701C228.749 51.8934 229.445 52.9841 229.009 53.9424C228.509 55.0414 226.969 55.0754 226.421 53.9995ZM229.426 50.3711H224.574L222.647 46.5843H229.426C230.797 46.5843 231.708 48.0117 231.137 49.2658C230.831 49.9392 230.162 50.3711 229.426 50.3711ZM246.656 10.9251C246.494 10.4121 246.305 9.91053 246.089 9.42061H247.721C248.564 9.42061 249.091 10.3283 248.68 11.0684C248.672 11.0829 248.664 11.0973 248.656 11.1118C248.191 11.9518 246.947 11.8413 246.656 10.9251ZM249.131 7.89818H245.284C244.894 7.26205 244.452 6.64985 243.944 6.06872C243.29 5.32134 242.572 4.67177 241.798 4.11139H249.158C250.659 4.11139 251.545 5.79898 250.695 7.04265C250.686 7.05602 250.677 7.06938 250.667 7.08275C250.321 7.591 249.744 7.89818 249.131 7.89818ZM334.13 124C325.943 124 318.82 119.017 318.82 110.22C318.82 101.984 325.559 96.4909 333.449 96.4909C335.626 96.4909 337.673 96.8392 339.678 97.6091C340.02 97.74 342.664 98.816 342.962 98.816C344.155 98.816 344.837 97.9085 345.051 96.8392H347.184V107.265H345.479C343.771 102.202 340.148 98.51 334.56 98.51C327.82 98.51 324.408 104.003 324.408 110.22C324.408 116.707 327.692 121.981 334.686 121.981C340.317 121.981 343.516 118.334 345.649 113.488L347.824 114.296C345.393 120.563 340.915 124 334.13 124ZM376.026 123.31V121.291H377.603C378.07 121.291 381.569 121.291 380.12 118.036C378.668 114.768 378.243 113.743 378.243 113.743H364.849C364.849 113.743 363.098 117.391 362.886 117.905C362.672 118.378 361.265 121.291 365.019 121.291H366.98V123.31H355.552V121.34H356.104C356.274 121.34 358.323 121.553 359.774 118.806C361.225 116.017 370.437 97.0502 370.437 97.0502H375.17C375.17 97.0502 384.216 117.26 384.511 117.906C384.767 118.544 385.793 121.291 389.205 121.291V123.31H376.026ZM371.844 99.4551L365.745 111.724H377.303L371.844 99.4551ZM407.969 111.638V118.334C407.969 121.422 411.168 121.291 413.385 121.291V123.31H398.284V121.291C401.401 121.291 403.701 121.422 403.701 117.564V102.803C403.701 98.8518 401.485 99.1135 398.284 99.1135V97.0502H415.945C420.849 97.0502 427.717 98.2127 427.717 104.562C427.717 113.439 413.385 111.638 407.969 111.638ZM414.238 99.0691C410.868 99.0691 407.969 98.6409 407.969 102.841V109.667H414.836C418.29 109.667 422.598 108.767 422.598 104.431C422.598 99.6725 417.95 99.0691 414.238 99.0691ZM436.055 123.31V121.253C438.998 121.253 441.558 121.422 441.558 117.433V102.761C441.558 100.014 440.279 99.1133 437.807 99.1133H436.055V97.0145L451.458 97.0499V99.1132H449.279C446.974 99.1132 445.948 100.311 445.948 102.672V117.39C445.948 121.377 448.507 121.253 451.458 121.253V123.31H436.055ZM488.847 106.195L488.637 103.662C488.291 99.7968 485.821 99.0691 482.413 99.0691C479.422 99.0691 478.224 99.7102 478.224 102.89L478.138 117.564C478.101 121.85 481.004 121.291 484.369 121.291V123.31H467.652V121.291C471.023 121.291 473.877 121.85 473.877 117.564V102.803C473.877 99.7103 472.511 99.0691 469.653 99.0691C466.287 99.0691 463.81 99.7968 463.47 103.662L463.254 106.195H460.784V97.0501H491.28V106.195H488.847ZM519.141 123.31V121.291H520.722C521.19 121.291 524.686 121.291 523.228 118.036C521.783 114.768 521.357 113.743 521.357 113.743H507.962C507.962 113.743 506.213 117.391 505.996 117.905C505.787 118.378 504.38 121.291 508.134 121.291H510.099V123.31H498.66V121.34H499.216C499.388 121.34 501.44 121.553 502.884 118.806C504.342 116.017 513.551 97.0502 513.551 97.0502H518.287C518.287 97.0502 527.331 117.26 527.626 117.906C527.887 118.544 528.91 121.291 532.32 121.291V123.31H519.141ZM514.958 99.4551L508.864 111.724H520.418L514.958 99.4551ZM541.399 123.31V121.291C544.555 121.291 546.816 121.422 546.816 117.564V102.803C546.816 98.8517 544.599 99.1134 541.399 99.1134V97.0501H556.883V99.1134C553.596 99.1134 551.084 98.6851 551.084 102.803V117.564C551.084 120.732 552.536 121.291 555.438 121.291H560.551C567.376 121.291 566.69 119.751 567.21 113.184H569.804V123.31H541.399ZM889.445 50.6655H897.813V53.4002H896.914L896.824 52.6158C896.743 51.9251 896.245 51.5886 895.306 51.5886C894.783 51.5886 894.603 51.6823 894.542 51.7378C894.484 51.7909 894.388 51.9494 894.388 52.406V56.2411C894.388 56.8064 894.682 57.0585 895.342 57.0585H896.047V57.9457H891.246V57.0585H892.022C892.347 57.0585 892.58 57.0006 892.697 56.892C892.81 56.7868 892.87 56.5619 892.87 56.2411V52.3702C892.87 52.0731 892.81 51.8604 892.697 51.7552C892.616 51.6789 892.42 51.5887 891.951 51.5887C891.011 51.5887 890.515 51.9251 890.433 52.6164L890.343 53.4002H889.445V50.6655ZM908.589 52.3701V56.241C908.589 56.8063 908.838 57.0583 909.4 57.0583H910V57.9455H905.904V57.0583H906.081C907.03 57.0583 907.139 56.5849 907.139 56.2289V52.2735L904.714 57.9455H903.848L901.315 52.3596V56.275C901.315 56.6114 901.421 57.0582 902.339 57.0582H902.516V57.9454H898.913V57.0582H899.478C900.064 57.0582 900.325 56.8172 900.325 56.2767V52.3699C900.325 51.9648 900.241 51.8023 900.171 51.737C900.111 51.682 899.94 51.5884 899.478 51.5884H898.913V50.6653H902.099L904.557 56.0848L906.985 50.6653H910V51.5884H909.4C908.838 51.5884 908.589 51.8296 908.589 52.3701Z" fill="black"/>
</g>
<defs>
<clipPath id="clip0_578_35">
<rect width="910" height="124" fill="white"/>
</clipPath>
</defs>
</svg>
