<?xml version="1.0" encoding="UTF-8"?>
<svg width="215px" height="25px" viewBox="0 0 215 25" version="1.1" xmlns="http://www.w3.org/2000/svg" xmlns:xlink="http://www.w3.org/1999/xlink">
    <title>logo</title>
    <g id="Symbols" stroke="none" stroke-width="1" fill="none" fill-rule="evenodd">
        <g id="Nav2" transform="translate(-17.000000, -1.000000)" fill="#000000">
            <path d="M65.8583303,2.28160631 L65.8580019,2.44124984 C65.8579483,2.46731466 65.8578884,2.49643416 65.8578225,2.52850664 L65.8570709,2.89414332 C65.8569704,2.94301831 65.8568645,2.99454115 65.8567534,3.04861015 L65.8560258,3.40276427 C65.8532718,4.74354633 65.8484013,7.11747432 65.8433705,9.58263523 L65.8419305,10.2886358 C65.836887,12.762631 65.8318695,15.2381531 65.8288344,16.7732891 L65.8280229,17.185497 C65.8278972,17.2496623 65.8277764,17.3114918 65.8276608,17.3708838 L65.8270301,17.6971718 C65.8269358,17.7464069 65.826847,17.793001 65.826764,17.8368526 L65.826337,18.0662363 C69.1562216,18.4028352 72.5957593,18.5768157 76.3160111,18.5768157 C81.4720454,18.5768157 84.9858368,18.3052009 86.7742758,18.1236296 L86.7742758,18.1236296 L86.7742758,2.28160631 L93.8067002,2.28160631 L93.8067002,23.5932715 L92.8780667,23.849729 L92.8780667,23.849729 L92.8436157,23.8590701 C92.3313468,23.9956389 87.0694071,25.3175785 76.3160111,25.2777504 L75.8090785,25.2767612 C65.2473078,25.2354294 59.9646142,23.9123623 59.7416934,23.8546922 L59.7416934,23.8546922 L58.7919175,23.6107644 L58.7919175,2.28160631 L65.8583303,2.28160631 L65.8583303,2.28160631 Z M118.068661,2.28163064 C128.893863,2.28163064 134.368785,3.64848761 134.595925,3.70619724 L134.595925,3.70619724 L135.543998,3.94808136 L135.585553,9.08589284 L135.598545,10.76227 L134.037441,10.3734842 C134.035646,10.3730197 134.028242,10.3711842 134.015274,10.3680638 L133.959719,10.3549346 C133.238102,10.1868198 127.547594,8.93989137 118.068636,8.93989137 C113.390556,8.93989137 109.95148,9.18381917 107.660199,9.43125042 L107.660199,9.43125042 L107.660199,18.1715588 C109.474986,18.3630321 112.934547,18.6148427 118.066325,18.6148427 C128.449655,18.6148427 133.938736,17.2030978 133.994426,17.1882324 L133.994426,17.1882324 L135.552051,16.7842894 L135.552051,23.66463 L134.580306,23.8989476 C134.348275,23.9557814 128.759029,25.2786262 118.097199,25.2786262 C107.377636,25.2349061 101.791309,23.9149808 101.557819,23.8587309 L101.557819,23.8587309 L100.583762,23.6223696 L100.619575,3.95158481 L101.573438,3.70619724 C101.799703,3.64848761 107.245478,2.28163064 118.068661,2.28163064 Z M161.012776,2.28158198 C171.884204,2.28158198 177.335672,3.64508148 177.562229,3.70240183 L177.562229,3.70240183 L178.519887,3.94764343 L178.519887,23.6681091 L177.545466,23.9014292 C177.310515,23.9581657 171.716014,25.2786262 161.007861,25.2786262 C151.192031,25.239071 145.774625,24.1506631 144.675006,23.9047057 L144.576651,23.8823445 C144.521345,23.869544 144.486562,23.8610605 144.472276,23.8575144 L144.472276,23.8575144 L143.50508,23.6201313 L143.50508,4.00727509 L144.442229,3.75011203 C144.660416,3.69018841 149.908149,2.28158198 161.012776,2.28158198 Z M44.0423141,2.4232528 L51.8095632,2.42641564 L51.8095632,24.9175031 L44.0540896,24.9175031 L44.0540896,24.9175031 L44.0540411,24.8688344 C44.0540252,24.8528807 44.0540055,24.8331404 44.0539822,24.8098154 L44.0530352,23.8622828 C44.0529715,23.7986639 44.0529056,23.7328733 44.0528378,23.665113 L44.052179,23.0075385 C44.052101,22.9297768 44.0520216,22.8506509 44.051941,22.7703628 L44.0511892,22.02184 C44.0511033,21.9363953 44.0510167,21.850394 44.0509298,21.764038 L44.0501423,20.9827059 C44.0500548,20.8960382 44.0499675,20.8096214 44.0498806,20.7236573 L44.0491147,19.9676548 C44.049032,19.886224 44.0489503,19.8058515 44.0488698,19.7267392 L44.0481829,19.0542053 C44.0481114,18.9844712 44.0480416,18.916603 44.0479739,18.8508024 L44.0470126,17.9333091 L44.0470126,17.9333091 L44.0469124,17.8421857 C42.7582505,16.8228516 39.3968349,14.4193867 33.1478454,12.2199977 C29.6081917,10.9744234 25.7189714,10.0988039 24.0216222,9.79726378 L24.0216222,9.79726378 L24.0216222,25.2785776 L17,25.2785776 L17,2.51470748 L18.232412,2.51298008 C18.2358384,2.51298008 18.2404708,2.51298709 18.2463102,2.51301182 L18.2958394,2.51345862 C18.9574819,2.52204488 24.2667541,2.68114163 34.4634887,5.54456037 C38.8070386,6.76483196 41.626879,7.94688186 44.0400272,9.24965486 L44.0400272,9.24965486 L44.0409574,6.03705043 C44.0409925,5.96470853 44.041028,5.89324796 44.0410636,5.82279405 L44.0419568,4.25654209 C44.0419836,4.21436187 44.0420093,4.1743165 44.0420337,4.13653134 L44.0423141,2.4232528 Z M201.526153,2.28155766 C212.336417,2.28155766 217.880385,3.74300781 218.110421,3.8045615 L218.110421,3.8045615 L218.817291,3.99571857 L218.817291,15.24552 L218.09485,15.4272129 C217.989382,15.4538537 216.082336,15.9163336 212.463928,16.3060439 C216.581773,17.918702 218.658638,19.4002727 218.771454,19.4825308 L218.771454,19.4825308 L219.182185,19.7819786 L219.156615,25.2786019 L211.956511,25.2786019 L211.956511,25.2786019 L211.956881,25.1603476 C211.95696,25.1352192 211.957051,25.1064779 211.957153,25.0745071 L211.957883,24.8469967 C211.959993,24.1966749 211.964074,22.9922766 211.966803,22.5279303 C210.671742,21.7997233 206.891761,20.1678449 201.347793,19.0150147 C196.654968,18.0382573 192.421339,17.9921042 190.651804,18.025533 L190.651804,18.025533 L190.651804,24.8995723 L184.167402,24.8995723 L184.167402,3.99423447 L184.8787,3.8045615 C184.99868,3.7725218 186.546619,3.36860332 189.500125,2.98482441 L190.05261,2.91535562 C192.797764,2.58150602 196.627344,2.28155766 201.526153,2.28155766 Z M160.980661,8.25844574 C155.200939,8.25844574 151.628952,8.6753078 150.43751,8.82717268 L150.43751,8.82717268 L150.407755,18.8165588 C151.68705,18.966088 155.550311,19.3823905 160.980685,19.3823905 C165.772409,19.3823905 169.19876,19.0798286 171.492621,18.8165588 L171.492621,18.8165588 L171.550136,8.86500509 C169.198736,8.56185923 165.71577,8.25844574 160.980661,8.25844574 Z M203.528836,8.65597961 L201.789181,8.65552596 L201.789181,8.65552596 L200.915856,8.65744234 C196.120176,8.67172755 191.527134,8.74679474 190.953539,8.83252518 L190.953539,8.83252518 L190.953539,13.5269797 C190.953539,13.5269797 190.956653,13.527016 190.962804,13.527087 L191.035579,13.5279174 C191.701809,13.5354557 196.322601,13.5863132 201.102749,13.6023622 L202.266607,13.6055378 C202.654259,13.6063398 203.040935,13.6068712 203.424613,13.6070906 L204.187372,13.6071008 C208.101444,13.6048756 211.55135,13.5663578 212.304983,13.4455975 L212.304983,13.4455975 L212.304983,8.87690223 C211.485915,8.72660839 207.697094,8.66430536 203.528836,8.65597961 Z M228.764271,1 C230.52855,1 231.962289,2.39383841 231.962289,4.11816906 C231.962289,5.84249972 230.52855,7.23633812 228.764271,7.23633812 C226.999821,7.23633812 225.566252,5.84259704 225.566252,4.11816906 C225.566252,2.39374109 226.999821,1 228.764271,1 Z M228.764271,1.64680038 C227.353012,1.64680038 226.213028,2.7551075 226.213028,4.11816906 C226.213028,5.48123062 227.353012,6.58953774 228.764271,6.58953774 C230.175359,6.58953774 231.315513,5.4811333 231.315513,4.11816906 C231.315513,2.75518049 230.175359,1.64680038 228.764271,1.64680038 Z M228.950124,2.77666346 C229.240253,2.77666346 229.451069,2.80104164 229.58257,2.84982234 C229.714071,2.89860303 229.81932,2.98531345 229.898318,3.11002659 C229.977341,3.2347154 230.016852,3.37731074 230.016852,3.53781261 C230.016852,3.74152371 229.956977,3.90973803 229.837203,4.04245558 C229.717428,4.17517314 229.538436,4.25881804 229.300153,4.29339029 L229.303875,4.29555562 C229.42073,4.36414055 229.517342,4.4393431 229.593688,4.52118762 C229.670862,4.603908 229.77487,4.75083399 229.905739,4.96194127 L230.237229,5.491595 L229.581645,5.491595 L229.185342,4.90082551 C229.044595,4.6896939 228.948299,4.5566844 228.896429,4.501724 C228.844558,4.44676361 228.789622,4.40912583 228.731596,4.38876202 C228.67357,4.36839821 228.58158,4.35820414 228.455651,4.35820414 L228.344538,4.35820414 L228.344538,5.491595 L227.796369,5.491595 L227.796369,2.77666346 L228.950124,2.77666346 Z M228.772372,3.23595621 L228.344586,3.23595621 L228.344586,3.924871 L228.750135,3.924871 C229.013113,3.924871 229.177313,3.9137524 229.242759,3.89153955 C229.308206,3.86932669 229.359419,3.83103202 229.396473,3.77672853 C229.433503,3.7224007 229.452042,3.654497 229.452042,3.57301743 C229.452042,3.48166007 229.427664,3.40789295 229.378883,3.35171608 C229.330102,3.29553921 229.261274,3.26004244 229.172398,3.24522576 C229.127948,3.23904606 228.994623,3.23595621 228.772372,3.23595621 Z" id="logo"></path>
        </g>
    </g>
</svg>