<svg width="179" height="22" viewBox="0 0 179 22" fill="none" xmlns="http://www.w3.org/2000/svg">
<g clip-path="url(#clip0_581_83)">
<path d="M11 0C4.93 0 0 4.93 0 11C0 17.07 4.93 22 11 22C17.07 22 22 17.07 22 11C22 4.93 17.07 0 11 0ZM4.94 4.94C6.62 3.26 8.8 2.44 11 2.44C13.2 2.44 15.4 3.27 17.06 4.95C17.99 5.88 18.67 6.99 19.09 8.15C16.19 4.89 11.36 4.95 7.93 7.76C6.63 8.81 5.36 8.52 4.68 7.77C4.09 7.12 3.85 6.03 4.93 4.93L4.94 4.94ZM17.06 17.06C15.38 18.74 13.2 19.57 11 19.57C8.8 19.57 6.6 18.74 4.94 17.06C4.01 16.13 3.33 15.02 2.91 13.86C5.81 17.12 10.64 17.06 14.07 14.26C15.36 13.21 16.63 13.49 17.31 14.25C17.89 14.89 18.14 15.99 17.05 17.08L17.06 17.06ZM16.4 11.13C15.08 11.03 13.77 11.47 12.61 12.36C11.38 13.33 9.9 13.86 8.47 13.89C7.01 13.93 5.68 13.42 4.66 12.44C3.85 11.67 3.28 10.76 3.01 9.86C3.76 10.44 4.66 10.79 5.62 10.85C6.94 10.95 8.25 10.51 9.41 9.62C10.64 8.65 12.12 8.12 13.55 8.09C15.01 8.07 16.34 8.56 17.36 9.54C18.17 10.31 18.74 11.22 19.01 12.12C18.26 11.54 17.36 11.19 16.39 11.13H16.4Z" fill="black"/>
</g>
<g clip-path="url(#clip1_581_83)">
<path d="M62.6723 6.20909L68.136 13.5763H68.1483L68.1112 11.2772V6.20909H70.9914V16.8397H67.2336L61.7947 9.47243H61.7823L61.8194 11.7592V16.8397H58.9393V6.20909H62.6723ZM88.1858 6.20909V10.2883H94.1438V6.20909H97.1723V16.8397H94.1438V12.7234H88.1858V16.8397H85.1573V6.20909H88.1858ZM40.6942 6.20909H32.1279V16.8397H35.3047V14.1079H40.6942C43.117 14.1079 44.7858 12.5009 44.7858 10.1523C44.7858 7.80368 43.1294 6.20909 40.6942 6.20909ZM39.557 11.6356H35.3047V8.53299H39.557C40.8796 8.53299 41.5224 9.00271 41.5224 10.0905C41.5224 11.1783 40.8796 11.6356 39.557 11.6356ZM146.048 10.3995L144.219 10.1894C142.253 10.0163 141.994 9.64549 142.006 9.13868C142.019 8.39701 143.378 8.13743 144.528 8.13743C145.987 8.13743 146.975 8.59479 147.272 9.34882L147.297 9.39827H150.622L150.597 9.31174C150.165 7.25979 147.94 5.8877 144.639 5.8877C141.141 5.8877 138.755 7.33395 138.718 9.28702C138.681 11.1783 140.201 12.2537 143.391 12.5627L145.208 12.7729C147.025 12.9459 147.705 13.0819 147.692 13.7988C147.68 14.4416 146.815 14.7506 144.961 14.7506C143.106 14.7506 142.13 14.318 141.87 13.4651V13.4156H138.459V13.5022C138.904 15.7272 141.314 17.124 144.775 17.124C148.644 17.124 150.943 15.8508 150.943 13.6629C150.943 11.7222 149.485 10.758 146.061 10.4119L146.048 10.3995ZM159.497 10.3995L157.668 10.1894C155.702 10.0163 155.443 9.64549 155.455 9.13868C155.468 8.39701 156.827 8.13743 157.977 8.13743C159.435 8.13743 160.424 8.59479 160.721 9.34882L160.746 9.39827H164.071L164.046 9.31174C163.614 7.25979 161.389 5.8877 158.088 5.8877C154.59 5.8877 152.204 7.33395 152.167 9.28702C152.13 11.1783 153.65 12.2537 156.84 12.5627L158.657 12.7729C160.474 12.9459 161.154 13.0819 161.141 13.7988C161.129 14.4416 160.264 14.7506 158.409 14.7506C156.555 14.7506 155.579 14.318 155.319 13.4651V13.4156H151.908V13.5022C152.353 15.7272 154.763 17.124 158.224 17.124C162.093 17.124 164.392 15.8508 164.392 13.6629C164.392 11.7222 162.934 10.758 159.51 10.4119L159.497 10.3995ZM52.7463 6.20909H48.7413L43.4755 16.8397H46.8006L47.7895 14.7012H53.624L54.6129 16.8397H58.0245L52.7463 6.20909ZM52.5609 12.4391H48.8278L50.6944 8.40938L52.5733 12.4391H52.5609ZM107.296 6.20909H103.291L98.0252 16.8397H101.35L102.339 14.7012H108.174L109.163 16.8397H112.574L107.296 6.20909ZM107.111 12.4391H103.378L105.244 8.40938L107.123 12.4391H107.111ZM133.638 6.20909H129.707L124.441 16.8397H127.766L128.755 14.7012H134.59L135.578 16.8397H138.916L133.638 6.20909ZM133.526 12.4391H129.793L131.66 8.40938L133.539 12.4391H133.526ZM116.666 14.4911V6.20909H113.551V16.8397H123.699V14.5034H116.678L116.666 14.4911ZM72.0915 6.20909V8.54535H76.5663V16.8274H79.5948V8.55771H84.0695V6.22145H72.0915V6.20909ZM173.441 6.20909H169.436L164.17 16.8397H167.495L168.484 14.7012H174.318L175.307 16.8397H178.719L173.441 6.20909ZM173.255 12.4391H169.522L171.389 8.40938L173.268 12.4391H173.255Z" fill="black"/>
</g>
<defs>
<clipPath id="clip0_581_83">
<rect width="22" height="22" fill="white"/>
</clipPath>
<clipPath id="clip1_581_83">
<rect width="147" height="13" fill="white" transform="translate(32 5)"/>
</clipPath>
</defs>
</svg>
