<svg width="986" height="200" viewBox="0 0 986 200" fill="none" xmlns="http://www.w3.org/2000/svg">
<path d="M397.308 152.186C381.841 152.186 369.757 143.44 369.757 126.906C369.757 108.814 384.258 101.865 400.087 101.865H413.017C420.992 101.865 424.618 98.7495 424.618 93.2382C424.618 86.0494 417.971 82.5748 409.392 82.5748C399.121 82.5748 392.595 87.4872 391.991 96.2335H372.899C374.107 79.2201 385.224 68.1973 409.15 68.1973C433.076 68.1973 442.864 79.6993 442.864 95.6344V129.541C442.864 133.375 444.314 134.813 448.181 134.813H451.202V149.67H438.756C430.055 149.67 425.222 145.357 425.222 137.928V134.933H424.98C419.905 146.675 409.634 152.186 397.308 152.186ZM402.988 137.569C413.863 137.569 424.618 130.859 424.618 114.445V107.137H424.376C421.959 112.049 417.246 114.445 409.029 114.805L403.108 115.044C393.562 115.284 389.454 120.076 389.454 126.307C389.454 132.537 393.562 137.689 403.108 137.689L402.988 137.569Z" fill="black"/>
<path d="M463.648 128.343V85.5705H448.302V70.7137H463.648V49.1475H482.015V70.7137H506.062V85.5705H482.015V125.707C482.015 132.417 485.52 135.053 491.562 135.053H506.425V149.909H485.278C471.019 149.909 463.527 142.84 463.527 128.463L463.648 128.343Z" fill="black"/>
<path d="M510.889 110.252C510.889 84.0128 527.323 68.3174 550.282 68.3174C573.242 68.3174 588.588 81.8562 588.588 107.257V115.404H530.344C530.948 128.943 538.561 137.809 550.766 137.809C559.587 137.809 566.233 133.016 568.771 125.468H587.621C584.117 141.284 570.221 152.186 550.524 152.186C526.961 152.186 511.01 136.371 511.01 110.252H510.889ZM570.221 102.344C570.221 90.8421 563.212 82.6949 550.766 82.6949C538.319 82.6949 531.673 91.3214 530.465 102.344H570.221Z" fill="black"/>
<path d="M601.158 70.7119H619.163V83.1724H619.405C623.151 75.2648 628.226 70.7119 638.86 70.7119H646.594V85.5687H635.597C624.601 85.5687 619.526 91.4395 619.526 104.379V149.788H601.279V70.7119H601.158Z" fill="black"/>
<path d="M650.943 123.551H669.794C670.277 133.496 676.561 137.809 685.986 137.809C695.411 137.809 701.212 133.256 701.212 126.187C701.212 119.957 697.345 116.243 687.436 116.243H678.736C662.06 116.243 652.393 107.137 652.393 93.8375C652.393 78.7411 664.718 68.3174 685.623 68.3174C706.528 68.3174 718.854 79.5798 719.337 96.3535H700.607C700.124 87.4874 695.29 82.6949 685.503 82.6949C676.802 82.6949 671.485 86.7685 671.485 93.2384C671.485 99.1092 675.956 101.985 683.327 101.985H692.874C711.966 101.985 720.666 112.648 720.666 125.588C720.666 141.284 708.22 152.306 685.986 152.306C663.752 152.306 651.305 141.044 650.822 123.671L650.943 123.551Z" fill="black"/>
<path d="M733.359 49.3857H751.605V69.7538C751.605 73.3482 751.605 76.1038 751.363 82.8133H751.605C755.834 74.1868 764.051 68.316 775.531 68.316C791.844 68.316 803.082 79.5784 803.082 98.7484V149.789H784.836V102.343C784.836 88.2049 778.794 82.8133 769.731 82.8133C760.668 82.8133 751.605 88.6842 751.605 104.5V149.789H733.359V49.3857Z" fill="black"/>
<path d="M815.524 110.252C815.524 84.0128 831.837 68.3174 854.917 68.3174C877.997 68.3174 893.223 81.8562 893.223 107.257V115.404H834.979C835.583 128.943 843.196 137.809 855.4 137.809C864.221 137.809 870.868 133.016 873.405 125.468H892.256C888.751 141.284 874.855 152.186 855.159 152.186C831.474 152.186 815.644 136.371 815.644 110.252H815.524ZM874.855 102.344C874.855 90.8421 867.847 82.6949 855.4 82.6949C842.954 82.6949 836.308 91.3214 835.099 102.344H874.855Z" fill="black"/>
<path d="M902.286 110.251C902.286 82.8133 919.204 68.316 937.813 68.316C950.017 68.316 959.684 74.5463 964.518 84.6105H964.76C964.518 81.8548 964.518 79.4586 964.518 76.5831V49.3857H982.764V149.789H964.639V144.517C964.639 141.641 964.639 139.006 964.76 136.01H964.518C959.684 146.075 950.017 152.305 937.813 152.305C919.204 152.305 902.286 137.807 902.286 110.37V110.251ZM943.25 137.807C956.543 137.807 964.518 126.905 964.518 110.251C964.518 93.5965 956.543 82.6935 943.25 82.6935C929.958 82.6935 921.862 93.5965 921.862 110.251C921.862 126.905 929.837 137.807 943.25 137.807Z" fill="black"/>
<path fill-rule="evenodd" clip-rule="evenodd" d="M303.017 112.122L319.851 149.07H334.835L380.511 48.5479H359.486L327.464 123.43H327.101L295.321 48.5479H274.053L293.985 92.298L278.887 127.504H278.645L246.744 48.5479H225.597L271.395 149.07H286.258L303.017 112.122Z" fill="black"/>
<mask id="mask0_579_47" style="mask-type:luminance" maskUnits="userSpaceOnUse" x="0" y="0" width="200" height="200">
<path d="M0 0H200V200H0V0Z" fill="white"/>
</mask>
<g mask="url(#mask0_579_47)">
<path fill-rule="evenodd" clip-rule="evenodd" d="M17.7436 92.205C17.5034 94.771 17.3806 97.3712 17.3806 100C17.3806 132.747 36.4361 161.047 64.0662 174.412C62.9279 172.494 61.8548 170.513 60.8483 168.488C51.9359 150.559 46.673 126.398 46.673 100.185C46.673 91.9139 47.197 83.8469 48.1944 76.1154C40.688 75.8831 35.6538 77.3862 32.0386 79.261C27.2713 81.7332 24.3367 84.9757 20.8 88.8835C19.8416 89.9425 18.8389 91.0504 17.7436 92.205ZM26.2257 62.7698C33.0149 59.7235 41.1767 58.1835 51.3273 58.8697C53.6996 48.9016 56.9193 39.7864 60.8483 31.8822C61.946 29.6738 63.123 27.5183 64.3775 25.4378C47.9058 33.3205 34.4535 46.4999 26.2257 62.7698ZM91.3099 20.8592C86.2986 24.1416 81.1092 30.1716 76.4113 39.6226C73.2572 45.9678 70.5661 53.4419 68.5082 61.772C77.8533 64.296 85.2327 68.4659 91.3098 73.4661L91.3099 20.8592ZM91.3098 99.0806C84.5596 89.7744 77.1809 82.5208 65.3542 78.9499C64.5088 85.7061 64.0537 92.8192 64.0537 100.185C64.0537 124.298 68.9303 145.698 76.4113 160.748C81.1091 170.199 86.2984 176.229 91.3097 179.511L91.3098 99.0806ZM108.69 180.313V124.598C114.493 131.983 121.65 138.952 131.451 143.654C129.617 149.972 127.406 155.715 124.904 160.748C119.794 171.029 114.102 177.262 108.69 180.313ZM135.321 125.999C125.987 120.248 120.062 111.102 112.842 99.9564C112.269 99.0727 111.689 98.1763 111.098 97.2681C110.314 96.0635 109.513 94.8448 108.69 93.6196L108.691 20.0578C114.102 23.1092 119.794 29.3419 124.904 39.6226C132.385 54.6726 137.262 76.0729 137.262 100.185C137.262 109.236 136.575 117.905 135.321 125.999ZM151.896 132.278C153.686 122.17 154.643 111.364 154.643 100.185C154.643 73.9725 149.38 49.8118 140.467 31.8822C139.531 29.9979 138.536 28.152 137.486 26.3584C164.275 40.0205 182.619 67.8692 182.619 100C182.619 106.487 181.872 112.799 180.458 118.855C180.224 118.797 180.225 118.795 180.225 118.793L180.228 118.784L180.232 118.766L180.239 118.739L180.245 118.717C180.245 118.716 180.237 118.743 180.222 118.796C180.192 118.9 180.13 119.103 180.032 119.386C179.834 119.957 179.496 120.826 178.982 121.857C177.937 123.951 176.276 126.487 173.779 128.599C170.325 131.521 163.894 134.797 151.896 132.278ZM147.939 149.197C145.87 156.189 143.361 162.667 140.467 168.488C139.622 170.188 138.731 171.857 137.792 173.484C148.706 167.861 158.205 159.878 165.615 150.21C160.409 150.861 154.533 150.615 147.939 149.197ZM101.526 199.989C156.048 199.173 200 154.721 200 100C200 44.769 155.226 0 100 0C44.7741 0 0 44.769 0 100C0 155.231 44.7741 200 100 200C100.138 200 100.275 200 100.413 199.999C100.495 200 100.576 200 100.658 200C100.948 200 101.237 199.996 101.526 199.989Z" fill="black"/>
</g>
</svg>
